<svg width="89" height="62" viewBox="0 0 89 62" fill="none" xmlns="http://www.w3.org/2000/svg">
<g clip-path="url(#clip0_87_111)">
<path d="M39.2992 61.83V61.6324C42.881 61.6324 46.4628 61.9006 50.0302 61.6324C61.363 60.6439 67.9104 52.3553 66.0049 41.7509C65.0307 36.2863 61.2627 32.4738 57.7955 28.506C52.9243 22.9567 47.351 17.8733 45.5458 10.3613C45.3461 9.58189 44.8649 8.90098 44.1924 8.44611C43.5199 7.99124 42.7022 7.79361 41.8924 7.89023C39.3852 7.89023 36.8923 7.89023 34.385 7.89023C31.1901 7.89023 29.9723 9.57055 29.9149 12.5076C29.8147 16.8284 31.9351 20.2173 34.5713 23.352C38.6545 28.2094 42.9096 32.9256 46.9785 37.7831C48.9987 40.1835 50.1018 42.9793 48.6835 46.0435C47.2651 49.1076 44.2277 49.7006 41.0185 49.7289C37.0785 49.7289 33.1385 49.7289 29.1986 49.7289C26.1326 49.7289 24.6712 50.9997 24.4133 54.0638C23.8976 60.3756 25.0437 61.703 31.7488 61.7736C34.2847 61.8442 36.792 61.83 39.2992 61.83ZM0.0572508 44.3208C0.0572508 48.331 0.214849 52.3553 0.0572508 56.3513C-0.100347 60.3474 1.80516 62.0842 5.78809 61.83C7.21929 61.7383 8.65503 61.7383 10.0862 61.83C14.2984 62.0842 15.8171 60.0226 15.7311 56.1819C15.6022 49.7289 15.7311 43.2759 15.7311 36.837C15.7311 27.5881 15.7311 27.5881 6.10329 27.7858C5.74511 27.7858 5.38694 27.7858 5.02876 27.7858C1.27506 27.5458 -0.0860203 29.4097 0.0285966 32.8692C0.157541 36.6534 0.0572508 40.4942 0.0572508 44.3208ZM88.8853 45.0127C88.8853 42.4145 88.8853 39.8023 88.8853 37.2041C88.8853 27.6305 88.2263 27.1363 78.6128 27.687C75.2603 27.8706 73.7129 29.2402 73.7272 32.4456C73.7272 40.6071 73.7272 48.7687 73.7272 56.9303C73.7272 61.8018 77.1228 61.9289 80.7046 61.8159C84.2863 61.703 88.7421 62.7196 88.828 56.9868C89 53.0048 88.9426 49.0087 88.9426 44.9844L88.8853 45.0127ZM81.2633 22.9002C82.2342 22.9588 83.207 22.8187 84.1203 22.4888C85.0336 22.1588 85.8677 21.6461 86.5702 20.983C87.2727 20.3198 87.8283 19.5205 88.2021 18.6354C88.5759 17.7503 88.7597 16.7985 88.7421 15.84C88.7985 14.8595 88.6533 13.8778 88.3151 12.954C87.9769 12.0302 87.4527 11.1834 86.774 10.4643C86.0953 9.74523 85.2761 9.16881 84.3656 8.76969C83.4552 8.37056 82.4722 8.15696 81.4759 8.14172C80.4795 8.12648 79.4903 8.30992 78.5677 8.68101C77.6451 9.0521 76.8082 9.60318 76.1072 10.3012C75.4062 10.9991 74.8555 11.8296 74.4884 12.7426C74.1213 13.6556 73.9452 14.6323 73.9708 15.6141C73.9159 16.5767 74.0662 17.5399 74.4119 18.4418C74.7576 19.3437 75.2911 20.1642 75.9781 20.8506C76.665 21.5369 77.4902 22.0739 78.4005 22.4269C79.3108 22.7799 80.286 22.9411 81.2633 22.9002ZM8.40996 22.9002C10.7739 22.9002 13.4818 22.0106 14.3271 19.2712C15.1723 16.5319 11.6909 17.2238 10.516 15.953C9.34122 14.6821 8.33832 13.7361 7.32109 12.5782C6.30387 11.4203 6.73368 8.63861 4.12615 9.27403C2.10603 9.76824 1.26073 11.731 0.701971 13.5949C-0.659104 18.1557 2.97998 22.7731 8.40996 22.9143V22.9002ZM22.8803 8.44092C22.8146 7.06982 22.3911 5.73862 21.6507 4.57602C20.9103 3.41343 19.8781 2.45877 18.6538 1.80435C17.504 1.11518 16.1703 0.782981 14.8262 0.850976C13.4822 0.918971 12.19 1.38401 11.1178 2.1856C8.71083 3.82356 7.13484 5.63097 11.2037 7.25481C12.9837 8.0415 14.5352 9.25515 15.7168 10.7849C16.8343 12.0981 16.4331 15.2893 19.2269 14.4703C22.0207 13.6513 22.5938 11.0956 22.8803 8.45505V8.44092Z" fill="white"/>
</g>
<defs>
<clipPath id="clip0_87_111">
<rect width="89" height="61" fill="white" transform="translate(0 0.858398)"/>
</clipPath>
</defs>
</svg>
