<svg aria-hidden="true" style="position:absolute;width:0;height:0;overflow:hidden" xmlns="http://www.w3.org/2000/svg">
  <defs>
    <symbol id="icon-logo" viewBox="0 0 46 32">
      <path d="M.117.286h45.714v31.429H.117V.286z"/>
    </symbol>
    <symbol id="icon-laung" viewBox="0 0 32 32">
      <path d="M23.07 19.077c.123-1.015.215-2.031.215-3.077s-.092-2.062-.215-3.077h5.2c.246.985.4 2.015.4 3.077s-.154 2.092-.4 3.077zm-2.723 8.554a24.072 24.072 0 0 0 2.123-5.477h4.538a12.352 12.352 0 0 1-6.662 5.477zm-.384-8.554h-7.2c-.154-1.015-.246-2.031-.246-3.077s.092-2.077.246-3.077h7.2c.138 1 .246 2.031.246 3.077s-.108 2.062-.246 3.077zm-3.6 9.169c-1.277-1.846-2.308-3.892-2.938-6.092h5.877c-.631 2.2-1.662 4.246-2.938 6.092zm-6.154-18.4H5.717a12.186 12.186 0 0 1 6.646-5.477c-.923 1.708-1.615 3.554-2.154 5.477zM5.717 22.154h4.492c.538 1.923 1.231 3.769 2.154 5.477a12.32 12.32 0 0 1-6.646-5.477zm-1.262-3.077c-.246-.985-.4-2.015-.4-3.077s.154-2.092.4-3.077h5.2C9.532 13.938 9.44 14.954 9.44 16s.092 2.062.215 3.077zM16.363 3.738c1.277 1.846 2.308 3.908 2.938 6.108h-5.877c.631-2.2 1.662-4.262 2.938-6.108zm10.646 6.108h-4.538a24.086 24.086 0 0 0-2.123-5.477 12.286 12.286 0 0 1 6.662 5.477zM16.363.615C7.855.615.978 7.538.978 16a15.388 15.388 0 0 0 15.384 15.385A15.388 15.388 0 0 0 31.747 16 15.384 15.384 0 0 0 16.363.616z"/>
    </symbol>
    <symbol id="icon-logo-text" viewBox="0 0 53 32">
      <path d="M1.278 1.018v6.649H.473V1.018h.805zM3.555 4.668v3h-.766V2.681h.74v.779h.065c.117-.253.294-.457.532-.61.238-.156.545-.234.922-.234.338 0 .633.069.886.208.253.136.45.344.591.623.141.277.211.628.211 1.052v3.169H5.97V4.551c0-.392-.102-.697-.305-.916-.203-.221-.483-.331-.838-.331-.245 0-.463.053-.656.159-.19.106-.341.261-.451.464s-.166.45-.166.74zM10.306 2.68v.649H7.722V2.68h2.584zM8.475 1.486h.766v4.753c0 .216.031.379.094.487a.483.483 0 0 0 .247.214.982.982 0 0 0 .321.052c.084 0 .154-.004.208-.013l.13-.026.156.688a1.563 1.563 0 0 1-.217.058 1.583 1.583 0 0 1-.354.032c-.216 0-.429-.047-.636-.14a1.262 1.262 0 0 1-.513-.425c-.134-.19-.201-.431-.201-.721V1.484zM13.496 7.771c-.481 0-.895-.106-1.244-.318a2.135 2.135 0 0 1-.802-.896c-.186-.385-.279-.833-.279-1.344s.093-.961.279-1.351a2.2 2.2 0 0 1 .786-.916 2.11 2.11 0 0 1 1.182-.331c.26 0 .516.043.769.13s.484.227.692.422c.208.193.373.448.497.766s.185.71.185 1.175v.325h-3.844v-.662h3.065a1.63 1.63 0 0 0-.169-.753 1.268 1.268 0 0 0-.474-.523 1.325 1.325 0 0 0-.721-.192c-.305 0-.569.076-.792.227-.221.149-.391.344-.51.584s-.179.498-.179.773v.442c0 .377.065.696.195.958a1.4 1.4 0 0 0 .549.594c.234.134.505.201.815.201.201 0 .383-.028.545-.084a1.16 1.16 0 0 0 .425-.26c.119-.117.211-.262.276-.435l.74.208a1.638 1.638 0 0 1-.393.662 1.93 1.93 0 0 1-.682.442 2.529 2.529 0 0 1-.912.156zM16.727 7.668V2.681h.74v.753h.052c.091-.247.255-.447.494-.601s.506-.231.805-.231l.211.003c.084.002.148.005.192.01v.779a2.545 2.545 0 0 0-.179-.029 1.772 1.772 0 0 0-.289-.023c-.242 0-.459.051-.649.153a1.122 1.122 0 0 0-.61 1.017v3.156h-.766zM20.894 4.668v3h-.766V2.681h.74v.779h.065c.117-.253.294-.457.532-.61.238-.156.545-.234.922-.234.338 0 .633.069.886.208.253.136.45.344.591.623.141.277.211.628.211 1.052v3.169h-.766V4.551c0-.392-.102-.697-.305-.916-.204-.221-.483-.331-.838-.331-.245 0-.463.053-.656.159-.191.106-.341.261-.451.464s-.166.45-.166.74zM26.944 7.784c-.316 0-.603-.06-.86-.179a1.472 1.472 0 0 1-.614-.523 1.476 1.476 0 0 1-.227-.831c0-.286.056-.517.169-.695.113-.18.263-.32.451-.422s.396-.178.623-.227c.229-.052.46-.093.692-.123.303-.039.549-.068.737-.088.19-.022.329-.057.416-.107.089-.05.133-.136.133-.26v-.026c0-.32-.088-.569-.263-.747-.173-.177-.436-.266-.789-.266-.366 0-.653.08-.86.24s-.354.331-.438.513l-.727-.26c.13-.303.303-.539.52-.708.219-.171.457-.29.714-.357.26-.069.515-.104.766-.104.16 0 .344.019.552.058.21.037.412.114.607.231.197.117.36.293.49.529s.195.552.195.948v3.286h-.766v-.675h-.039c-.052.108-.139.224-.26.347s-.282.228-.484.315c-.201.087-.447.13-.737.13zm.117-.688c.303 0 .558-.06.766-.179a1.217 1.217 0 0 0 .636-1.055v-.701c-.032.039-.104.075-.214.107-.108.03-.234.057-.377.081a14.513 14.513 0 0 1-.733.097 2.882 2.882 0 0 0-.558.127.967.967 0 0 0-.416.256c-.104.113-.156.266-.156.461 0 .266.098.468.295.604.199.134.451.201.756.201zM32.797 2.68v.649h-2.584V2.68h2.584zm-1.831-1.194h.766v4.753c0 .216.031.379.094.487a.483.483 0 0 0 .247.214.982.982 0 0 0 .321.052c.084 0 .154-.004.208-.013l.13-.026.156.688a1.544 1.544 0 0 1-.218.058 1.583 1.583 0 0 1-.354.032c-.216 0-.429-.047-.636-.14a1.262 1.262 0 0 1-.513-.425c-.134-.19-.201-.431-.201-.721V1.484zM33.95 7.668V2.681h.766v4.987h-.766zm.389-5.819a.543.543 0 0 1-.386-.153.49.49 0 0 1-.159-.367.49.49 0 0 1 .159-.367c.108-.102.237-.153.386-.153s.277.051.383.153c.108.102.162.224.162.367s-.054.265-.162.367a.533.533 0 0 1-.383.153zM38.145 7.771c-.45 0-.845-.107-1.185-.321a2.177 2.177 0 0 1-.792-.899c-.188-.385-.282-.835-.282-1.351 0-.519.094-.973.282-1.36.19-.387.455-.688.792-.903.34-.214.735-.321 1.185-.321s.844.107 1.182.321c.34.214.604.515.792.903.19.387.286.841.286 1.36 0 .515-.095.965-.286 1.351a2.149 2.149 0 0 1-.792.899 2.162 2.162 0 0 1-1.182.321zm0-.688c.342 0 .623-.088.844-.263s.384-.406.49-.692c.106-.286.159-.595.159-.929s-.053-.644-.159-.932c-.106-.288-.269-.521-.49-.698s-.502-.266-.844-.266c-.342 0-.623.089-.844.266s-.384.41-.49.698c-.106.288-.159.599-.159.932s.053.643.159.929c.106.286.269.516.49.692s.502.263.844.263zM42.341 4.668v3h-.766V2.681h.74v.779h.065c.117-.253.294-.457.532-.61.238-.156.545-.234.922-.234.338 0 .633.069.886.208.253.136.45.344.591.623.141.277.211.628.211 1.052v3.169h-.766V4.551c0-.392-.102-.697-.305-.916-.203-.221-.483-.331-.838-.331-.245 0-.463.053-.656.159-.19.106-.341.261-.451.464s-.166.45-.166.74zM48.39 7.784c-.316 0-.603-.06-.86-.179a1.472 1.472 0 0 1-.614-.523 1.476 1.476 0 0 1-.227-.831c0-.286.056-.517.169-.695.113-.18.263-.32.451-.422s.396-.178.623-.227c.23-.052.46-.093.692-.123.303-.039.549-.068.737-.088.19-.022.329-.057.416-.107.089-.05.133-.136.133-.26v-.026c0-.32-.088-.569-.263-.747-.173-.177-.436-.266-.789-.266-.366 0-.653.08-.86.24s-.354.331-.438.513l-.727-.26c.13-.303.303-.539.52-.708.219-.171.457-.29.714-.357.26-.069.515-.104.766-.104.16 0 .344.019.552.058.21.037.412.114.607.231.197.117.36.293.49.529s.195.552.195.948v3.286h-.766v-.675h-.039c-.052.108-.139.224-.26.347s-.282.228-.484.315c-.201.087-.447.13-.737.13zm.117-.688c.303 0 .558-.06.766-.179a1.217 1.217 0 0 0 .636-1.055v-.701c-.033.039-.104.075-.214.107-.108.03-.234.057-.377.081a14.513 14.513 0 0 1-.733.097 2.882 2.882 0 0 0-.558.127.973.973 0 0 0-.416.256c-.104.113-.156.266-.156.461 0 .266.098.468.295.604.199.134.451.201.756.201zM52.841 1.018v6.649h-.766V1.018h.766zM4.11 14.566c-.039-.329-.197-.584-.474-.766s-.617-.273-1.019-.273c-.294 0-.552.048-.773.143-.219.095-.39.226-.513.393a.944.944 0 0 0-.182.568c0 .178.042.33.127.458.087.126.197.231.331.315.134.082.275.15.422.205.147.052.282.094.406.127l.675.182c.173.045.366.108.578.188.214.08.419.189.614.328.197.136.359.312.487.526s.192.477.192.789c0 .359-.094.684-.282.974-.186.29-.459.52-.818.692-.357.171-.791.256-1.302.256-.476 0-.889-.077-1.237-.23a1.974 1.974 0 0 1-.818-.643 1.834 1.834 0 0 1-.334-.958h.831c.022.251.106.459.253.623.149.162.338.284.565.364.229.078.476.117.74.117.307 0 .583-.05.828-.149.245-.102.438-.242.581-.422a1 1 0 0 0 .214-.636c0-.221-.062-.4-.185-.539s-.286-.251-.487-.338a5.042 5.042 0 0 0-.653-.227l-.818-.234c-.519-.149-.931-.363-1.234-.64s-.455-.64-.455-1.088c0-.372.101-.697.302-.974.203-.279.476-.496.818-.649a2.76 2.76 0 0 1 1.153-.234c.429 0 .81.077 1.143.23.333.152.597.359.792.623.197.264.301.564.312.899h-.779zM8.368 14.566v.649H5.784v-.649h2.584zm-1.831-1.195h.766v4.753c0 .216.031.379.094.487a.483.483 0 0 0 .247.214.982.982 0 0 0 .321.052c.084 0 .154-.004.208-.013l.13-.026.156.688a1.544 1.544 0 0 1-.218.058 1.583 1.583 0 0 1-.354.032c-.216 0-.429-.047-.636-.14a1.262 1.262 0 0 1-.513-.425c-.134-.191-.201-.431-.201-.721v-4.961zM12.664 17.514v-2.948h.766v4.987h-.766v-.844h-.052a1.64 1.64 0 0 1-.545.646c-.247.175-.558.263-.935.263-.312 0-.589-.068-.831-.205a1.432 1.432 0 0 1-.571-.623c-.139-.279-.208-.631-.208-1.055v-3.169h.766v3.117c0 .364.102.654.305.87.206.216.467.325.786.325.19 0 .384-.049.581-.146.199-.097.366-.247.5-.448.136-.201.205-.458.205-.77zM16.717 19.657c-.416 0-.782-.105-1.101-.315a2.132 2.132 0 0 1-.747-.896c-.18-.387-.269-.845-.269-1.373 0-.524.09-.978.269-1.364s.43-.683.75-.893c.32-.21.69-.315 1.11-.315.325 0 .581.054.769.162.191.106.336.227.435.364.102.134.181.245.237.331h.065v-2.455h.766v6.649h-.74v-.766h-.091a4.638 4.638 0 0 1-.24.344 1.426 1.426 0 0 1-.445.367c-.193.106-.449.159-.769.159zm.104-.688c.307 0 .567-.08.779-.24.212-.162.373-.386.484-.672.11-.288.166-.62.166-.997a2.7 2.7 0 0 0-.162-.977 1.419 1.419 0 0 0-.481-.656c-.212-.158-.474-.237-.786-.237-.325 0-.595.083-.812.25a1.492 1.492 0 0 0-.484.672 2.674 2.674 0 0 0-.159.948c0 .355.054.677.162.968.11.288.273.517.487.688.216.169.485.253.805.253zM21.006 21.423a1.716 1.716 0 0 1-.558-.09l.195-.675c.186.048.351.065.494.052s.27-.077.38-.192c.113-.113.215-.295.308-.549l.143-.39-1.844-5.013h.831l1.377 3.974h.052l1.377-3.974h.831l-2.117 5.714a2.149 2.149 0 0 1-.354.64 1.327 1.327 0 0 1-.49.38 1.516 1.516 0 0 1-.623.123zM1.278 24.79v6.649H.473V24.79h.805zM3.555 28.439v3h-.766v-4.987h.74v.779h.065c.117-.253.294-.457.532-.61.238-.156.545-.234.922-.234.338 0 .633.069.886.208.253.136.45.344.591.623.141.277.211.628.211 1.052v3.169H5.97v-3.117c0-.392-.102-.697-.305-.916-.203-.221-.483-.331-.838-.331-.245 0-.463.053-.656.159-.19.106-.341.261-.451.464s-.166.45-.166.74zM11.67 27.569l-.688.195a1.246 1.246 0 0 0-.192-.334c-.082-.11-.195-.201-.338-.273s-.326-.107-.549-.107c-.305 0-.56.07-.763.211-.201.139-.302.315-.302.529 0 .19.069.341.208.451s.355.202.649.276l.74.182c.446.108.778.274.997.497.219.221.328.505.328.854 0 .286-.082.541-.247.766-.162.225-.39.403-.682.532s-.632.195-1.02.195c-.509 0-.93-.11-1.263-.331s-.544-.543-.633-.968l.727-.182c.069.268.2.47.393.604.195.134.449.201.763.201.357 0 .641-.076.851-.227.212-.154.318-.338.318-.552a.581.581 0 0 0-.182-.435c-.121-.119-.307-.208-.558-.266l-.831-.195c-.457-.108-.792-.276-1.007-.503a1.218 1.218 0 0 1-.318-.86c0-.281.079-.53.237-.747.16-.216.378-.386.653-.51.277-.123.591-.185.942-.185.493 0 .881.108 1.162.325.284.216.485.502.604.857zM15.083 26.452v.649h-2.584v-.649h2.584zm-1.831-1.195h.766v4.753c0 .216.031.379.094.487a.483.483 0 0 0 .247.214.982.982 0 0 0 .321.052c.084 0 .154-.004.208-.013l.13-.026.156.688a1.563 1.563 0 0 1-.217.058 1.583 1.583 0 0 1-.354.032c-.216 0-.429-.047-.636-.14a1.262 1.262 0 0 1-.513-.425c-.134-.191-.201-.431-.201-.721v-4.961zM16.235 31.439v-4.987h.766v4.987h-.766zm.39-5.818a.543.543 0 0 1-.386-.153.49.49 0 0 1-.159-.367.49.49 0 0 1 .159-.367c.108-.102.237-.153.386-.153s.277.051.383.153c.108.102.162.224.162.367s-.054.265-.162.367a.533.533 0 0 1-.383.153zM20.574 26.452v.649H17.99v-.649h2.584zm-1.831-1.195h.766v4.753c0 .216.031.379.094.487a.483.483 0 0 0 .247.214.982.982 0 0 0 .321.052c.084 0 .154-.004.208-.013l.13-.026.156.688a1.544 1.544 0 0 1-.218.058 1.583 1.583 0 0 1-.354.032c-.216 0-.429-.047-.636-.14a1.262 1.262 0 0 1-.513-.425c-.134-.191-.201-.431-.201-.721v-4.961zM24.869 29.4v-2.948h.766v4.987h-.766v-.844h-.052a1.64 1.64 0 0 1-.545.646c-.247.175-.558.263-.935.263-.312 0-.589-.068-.831-.205a1.432 1.432 0 0 1-.571-.623c-.139-.279-.208-.631-.208-1.055v-3.169h.766v3.117c0 .364.102.654.305.87.206.216.468.325.786.325.19 0 .384-.049.581-.146.199-.097.366-.247.5-.448.136-.201.205-.458.205-.77zM29.208 26.452v.649h-2.584v-.649h2.584zm-1.831-1.195h.766v4.753c0 .216.031.379.094.487a.483.483 0 0 0 .247.214.982.982 0 0 0 .321.052c.084 0 .154-.004.208-.013l.13-.026.156.688a1.583 1.583 0 0 1-.218.058 1.583 1.583 0 0 1-.354.032c-.216 0-.429-.047-.636-.14a1.262 1.262 0 0 1-.513-.425c-.134-.191-.201-.431-.201-.721v-4.961zM32.398 31.543c-.481 0-.895-.106-1.244-.318a2.135 2.135 0 0 1-.802-.896c-.186-.385-.279-.833-.279-1.344s.093-.961.279-1.351a2.2 2.2 0 0 1 .786-.916 2.11 2.11 0 0 1 1.182-.331c.26 0 .516.043.769.13s.484.227.692.422c.208.193.373.448.497.766s.185.71.185 1.175v.325h-3.844v-.662h3.065a1.63 1.63 0 0 0-.169-.753 1.268 1.268 0 0 0-.474-.523 1.325 1.325 0 0 0-.721-.192c-.305 0-.569.076-.792.227-.221.149-.391.344-.51.584s-.179.498-.179.773v.442c0 .377.065.696.195.958a1.4 1.4 0 0 0 .549.594c.234.134.505.201.815.201.201 0 .383-.028.545-.084a1.16 1.16 0 0 0 .425-.26c.119-.117.211-.262.276-.435l.74.208a1.638 1.638 0 0 1-.393.662 1.93 1.93 0 0 1-.682.442 2.529 2.529 0 0 1-.912.156z"/>
    </symbol>
    <symbol id="icon-menu" viewBox="0 0 40 32">
      <path stroke-linejoin="miter" stroke-linecap="round" stroke-miterlimit="4" stroke-width="5.12" d="M3.2 3.2h33.28M3.2 16h33.28M3.2 28.8h33.28"></path>
    </symbol>
    <symbol id="icon-arrow-right" viewBox="0 0 29 32">
      <path fill="#fff" style="fill: var(--color1, #fff)" d="M28.081 17.414c0.781-0.781 0.781-2.047 0-2.829l-12.728-12.728c-0.781-0.781-2.047-0.781-2.828 0s-0.781 2.047 0 2.828l11.314 11.314-11.314 11.314c-0.781 0.781-0.781 2.047 0 2.828s2.047 0.781 2.828 0l12.728-12.728zM0 18h26.667v-4h-26.667v4z"></path>
    </symbol>
    <symbol id="icon-arrow-left" viewBox="0 0 29 32">
      <path fill="#fff" style="fill: var(--color1, #fff)" d="M1.252 14.586c-0.781 0.781-0.781 2.047 0 2.829l12.728 12.728c0.781 0.781 2.047 0.781 2.828 0s0.781-2.047 0-2.828l-11.314-11.314 11.314-11.314c0.781-0.781 0.781-2.047 0-2.828s-2.047-0.781-2.828 0l-12.728 12.728zM2.667 18h26.667v-4h-26.667v4z"></path>
    </symbol>
    <symbol id="icon-Star" viewBox="0 0 37 32">
      <path fill="#f9a830" style="fill: var(--color1, #f9a830)" d="M18.286 0l3.849 11.845h12.455l-10.076 7.321 3.849 11.845-10.076-7.321-10.076 7.321 3.849-11.845-10.076-7.321h12.455l3.849-11.845z"></path>
    </symbol>
  </defs>
</svg>
