<svg aria-hidden="true" style="position:absolute;width:0;height:0;overflow:hidden" xmlns="http://www.w3.org/2000/svg">
  <defs>
    <symbol id="icon-logo" viewBox="0 0 46 32">
      <path d="M.117.286h45.714v31.429H.117V.286z"/>
    </symbol>
    <symbol id="icon-laung" viewBox="0 0 32 32">
      <path d="M23.07 19.077c.123-1.015.215-2.031.215-3.077s-.092-2.062-.215-3.077h5.2c.246.985.4 2.015.4 3.077s-.154 2.092-.4 3.077zm-2.723 8.554a24.072 24.072 0 0 0 2.123-5.477h4.538a12.352 12.352 0 0 1-6.662 5.477zm-.384-8.554h-7.2c-.154-1.015-.246-2.031-.246-3.077s.092-2.077.246-3.077h7.2c.138 1 .246 2.031.246 3.077s-.108 2.062-.246 3.077zm-3.6 9.169c-1.277-1.846-2.308-3.892-2.938-6.092h5.877c-.631 2.2-1.662 4.246-2.938 6.092zm-6.154-18.4H5.717a12.186 12.186 0 0 1 6.646-5.477c-.923 1.708-1.615 3.554-2.154 5.477zM5.717 22.154h4.492c.538 1.923 1.231 3.769 2.154 5.477a12.32 12.32 0 0 1-6.646-5.477zm-1.262-3.077c-.246-.985-.4-2.015-.4-3.077s.154-2.092.4-3.077h5.2C9.532 13.938 9.44 14.954 9.44 16s.092 2.062.215 3.077zM16.363 3.738c1.277 1.846 2.308 3.908 2.938 6.108h-5.877c.631-2.2 1.662-4.262 2.938-6.108zm10.646 6.108h-4.538a24.086 24.086 0 0 0-2.123-5.477 12.286 12.286 0 0 1 6.662 5.477zM16.363.615C7.855.615.978 7.538.978 16a15.388 15.388 0 0 0 15.384 15.385A15.388 15.388 0 0 0 31.747 16 15.384 15.384 0 0 0 16.363.616z"/>
    </symbol>
    <symbol id="icon-logo-text" viewBox="0 0 53 32">
      <path d="M1.278 1.018v6.649H.473V1.018h.805zM3.555 4.668v3h-.766V2.681h.74v.779h.065c.117-.253.294-.457.532-.61.238-.156.545-.234.922-.234.338 0 .633.069.886.208.253.136.45.344.591.623.141.277.211.628.211 1.052v3.169H5.97V4.551c0-.392-.102-.697-.305-.916-.203-.221-.483-.331-.838-.331-.245 0-.463.053-.656.159-.19.106-.341.261-.451.464s-.166.45-.166.74zM10.306 2.68v.649H7.722V2.68h2.584zM8.475 1.486h.766v4.753c0 .216.031.379.094.487a.483.483 0 0 0 .247.214.982.982 0 0 0 .321.052c.084 0 .154-.004.208-.013l.13-.026.156.688a1.563 1.563 0 0 1-.217.058 1.583 1.583 0 0 1-.354.032c-.216 0-.429-.047-.636-.14a1.262 1.262 0 0 1-.513-.425c-.134-.19-.201-.431-.201-.721V1.484zM13.496 7.771c-.481 0-.895-.106-1.244-.318a2.135 2.135 0 0 1-.802-.896c-.186-.385-.279-.833-.279-1.344s.093-.961.279-1.351a2.2 2.2 0 0 1 .786-.916 2.11 2.11 0 0 1 1.182-.331c.26 0 .516.043.769.13s.484.227.692.422c.208.193.373.448.497.766s.185.71.185 1.175v.325h-3.844v-.662h3.065a1.63 1.63 0 0 0-.169-.753 1.268 1.268 0 0 0-.474-.523 1.325 1.325 0 0 0-.721-.192c-.305 0-.569.076-.792.227-.221.149-.391.344-.51.584s-.179.498-.179.773v.442c0 .377.065.696.195.958a1.4 1.4 0 0 0 .549.594c.234.134.505.201.815.201.201 0 .383-.028.545-.084a1.16 1.16 0 0 0 .425-.26c.119-.117.211-.262.276-.435l.74.208a1.638 1.638 0 0 1-.393.662 1.93 1.93 0 0 1-.682.442 2.529 2.529 0 0 1-.912.156zM16.727 7.668V2.681h.74v.753h.052c.091-.247.255-.447.494-.601s.506-.231.805-.231l.211.003c.084.002.148.005.192.01v.779a2.545 2.545 0 0 0-.179-.029 1.772 1.772 0 0 0-.289-.023c-.242 0-.459.051-.649.153a1.122 1.122 0 0 0-.61 1.017v3.156h-.766zM20.894 4.668v3h-.766V2.681h.74v.779h.065c.117-.253.294-.457.532-.61.238-.156.545-.234.922-.234.338 0 .633.069.886.208.253.136.45.344.591.623.141.277.211.628.211 1.052v3.169h-.766V4.551c0-.392-.102-.697-.305-.916-.204-.221-.483-.331-.838-.331-.245 0-.463.053-.656.159-.191.106-.341.261-.451.464s-.166.45-.166.74zM26.944 7.784c-.316 0-.603-.06-.86-.179a1.472 1.472 0 0 1-.614-.523 1.476 1.476 0 0 1-.227-.831c0-.286.056-.517.169-.695.113-.18.263-.32.451-.422s.396-.178.623-.227c.229-.052.46-.093.692-.123.303-.039.549-.068.737-.088.19-.022.329-.057.416-.107.089-.05.133-.136.133-.26v-.026c0-.32-.088-.569-.263-.747-.173-.177-.436-.266-.789-.266-.366 0-.653.08-.86.24s-.354.331-.438.513l-.727-.26c.13-.303.303-.539.52-.708.219-.171.457-.29.714-.357.26-.069.515-.104.766-.104.16 0 .344.019.552.058.21.037.412.114.607.231.197.117.36.293.49.529s.195.552.195.948v3.286h-.766v-.675h-.039c-.052.108-.139.224-.26.347s-.282.228-.484.315c-.201.087-.447.13-.737.13zm.117-.688c.303 0 .558-.06.766-.179a1.217 1.217 0 0 0 .636-1.055v-.701c-.032.039-.104.075-.214.107-.108.03-.234.057-.377.081a14.513 14.513 0 0 1-.733.097 2.882 2.882 0 0 0-.558.127.967.967 0 0 0-.416.256c-.104.113-.156.266-.156.461 0 .266.098.468.295.604.199.134.451.201.756.201zM32.797 2.68v.649h-2.584V2.68h2.584zm-1.831-1.194h.766v4.753c0 .216.031.379.094.487a.483.483 0 0 0 .247.214.982.982 0 0 0 .321.052c.084 0 .154-.004.208-.013l.13-.026.156.688a1.544 1.544 0 0 1-.218.058 1.583 1.583 0 0 1-.354.032c-.216 0-.429-.047-.636-.14a1.262 1.262 0 0 1-.513-.425c-.134-.19-.201-.431-.201-.721V1.484zM33.95 7.668V2.681h.766v4.987h-.766zm.389-5.819a.543.543 0 0 1-.386-.153.49.49 0 0 1-.159-.367.49.49 0 0 1 .159-.367c.108-.102.237-.153.386-.153s.277.051.383.153c.108.102.162.224.162.367s-.054.265-.162.367a.533.533 0 0 1-.383.153zM38.145 7.771c-.45 0-.845-.107-1.185-.321a2.177 2.177 0 0 1-.792-.899c-.188-.385-.282-.835-.282-1.351 0-.519.094-.973.282-1.36.19-.387.455-.688.792-.903.34-.214.735-.321 1.185-.321s.844.107 1.182.321c.34.214.604.515.792.903.19.387.286.841.286 1.36 0 .515-.095.965-.286 1.351a2.149 2.149 0 0 1-.792.899 2.162 2.162 0 0 1-1.182.321zm0-.688c.342 0 .623-.088.844-.263s.384-.406.49-.692c.106-.286.159-.595.159-.929s-.053-.644-.159-.932c-.106-.288-.269-.521-.49-.698s-.502-.266-.844-.266c-.342 0-.623.089-.844.266s-.384.41-.49.698c-.106.288-.159.599-.159.932s.053.643.159.929c.106.286.269.516.49.692s.502.263.844.263zM42.341 4.668v3h-.766V2.681h.74v.779h.065c.117-.253.294-.457.532-.61.238-.156.545-.234.922-.234.338 0 .633.069.886.208.253.136.45.344.591.623.141.277.211.628.211 1.052v3.169h-.766V4.551c0-.392-.102-.697-.305-.916-.203-.221-.483-.331-.838-.331-.245 0-.463.053-.656.159-.19.106-.341.261-.451.464s-.166.45-.166.74zM48.39 7.784c-.316 0-.603-.06-.86-.179a1.472 1.472 0 0 1-.614-.523 1.476 1.476 0 0 1-.227-.831c0-.286.056-.517.169-.695.113-.18.263-.32.451-.422s.396-.178.623-.227c.23-.052.46-.093.692-.123.303-.039.549-.068.737-.088.19-.022.329-.057.416-.107.089-.05.133-.136.133-.26v-.026c0-.32-.088-.569-.263-.747-.173-.177-.436-.266-.789-.266-.366 0-.653.08-.86.24s-.354.331-.438.513l-.727-.26c.13-.303.303-.539.52-.708.219-.171.457-.29.714-.357.26-.069.515-.104.766-.104.16 0 .344.019.552.058.21.037.412.114.607.231.197.117.36.293.49.529s.195.552.195.948v3.286h-.766v-.675h-.039c-.052.108-.139.224-.26.347s-.282.228-.484.315c-.201.087-.447.13-.737.13zm.117-.688c.303 0 .558-.06.766-.179a1.217 1.217 0 0 0 .636-1.055v-.701c-.033.039-.104.075-.214.107-.108.03-.234.057-.377.081a14.513 14.513 0 0 1-.733.097 2.882 2.882 0 0 0-.558.127.973.973 0 0 0-.416.256c-.104.113-.156.266-.156.461 0 .266.098.468.295.604.199.134.451.201.756.201zM52.841 1.018v6.649h-.766V1.018h.766zM4.11 14.566c-.039-.329-.197-.584-.474-.766s-.617-.273-1.019-.273c-.294 0-.552.048-.773.143-.219.095-.39.226-.513.393a.944.944 0 0 0-.182.568c0 .178.042.33.127.458.087.126.197.231.331.315.134.082.275.15.422.205.147.052.282.094.406.127l.675.182c.173.045.366.108.578.188.214.08.419.189.614.328.197.136.359.312.487.526s.192.477.192.789c0 .359-.094.684-.282.974-.186.29-.459.52-.818.692-.357.171-.791.256-1.302.256-.476 0-.889-.077-1.237-.23a1.974 1.974 0 0 1-.818-.643 1.834 1.834 0 0 1-.334-.958h.831c.022.251.106.459.253.623.149.162.338.284.565.364.229.078.476.117.74.117.307 0 .583-.05.828-.149.245-.102.438-.242.581-.422a1 1 0 0 0 .214-.636c0-.221-.062-.4-.185-.539s-.286-.251-.487-.338a5.042 5.042 0 0 0-.653-.227l-.818-.234c-.519-.149-.931-.363-1.234-.64s-.455-.64-.455-1.088c0-.372.101-.697.302-.974.203-.279.476-.496.818-.649a2.76 2.76 0 0 1 1.153-.234c.429 0 .81.077 1.143.23.333.152.597.359.792.623.197.264.301.564.312.899h-.779zM8.368 14.566v.649H5.784v-.649h2.584zm-1.831-1.195h.766v4.753c0 .216.031.379.094.487a.483.483 0 0 0 .247.214.982.982 0 0 0 .321.052c.084 0 .154-.004.208-.013l.13-.026.156.688a1.544 1.544 0 0 1-.218.058 1.583 1.583 0 0 1-.354.032c-.216 0-.429-.047-.636-.14a1.262 1.262 0 0 1-.513-.425c-.134-.191-.201-.431-.201-.721v-4.961zM12.664 17.514v-2.948h.766v4.987h-.766v-.844h-.052a1.64 1.64 0 0 1-.545.646c-.247.175-.558.263-.935.263-.312 0-.589-.068-.831-.205a1.432 1.432 0 0 1-.571-.623c-.139-.279-.208-.631-.208-1.055v-3.169h.766v3.117c0 .364.102.654.305.87.206.216.467.325.786.325.19 0 .384-.049.581-.146.199-.097.366-.247.5-.448.136-.201.205-.458.205-.77zM16.717 19.657c-.416 0-.782-.105-1.101-.315a2.132 2.132 0 0 1-.747-.896c-.18-.387-.269-.845-.269-1.373 0-.524.09-.978.269-1.364s.43-.683.75-.893c.32-.21.69-.315 1.11-.315.325 0 .581.054.769.162.191.106.336.227.435.364.102.134.181.245.237.331h.065v-2.455h.766v6.649h-.74v-.766h-.091a4.638 4.638 0 0 1-.24.344 1.426 1.426 0 0 1-.445.367c-.193.106-.449.159-.769.159zm.104-.688c.307 0 .567-.08.779-.24.212-.162.373-.386.484-.672.11-.288.166-.62.166-.997a2.7 2.7 0 0 0-.162-.977 1.419 1.419 0 0 0-.481-.656c-.212-.158-.474-.237-.786-.237-.325 0-.595.083-.812.25a1.492 1.492 0 0 0-.484.672 2.674 2.674 0 0 0-.159.948c0 .355.054.677.162.968.11.288.273.517.487.688.216.169.485.253.805.253zM21.006 21.423a1.716 1.716 0 0 1-.558-.09l.195-.675c.186.048.351.065.494.052s.27-.077.38-.192c.113-.113.215-.295.308-.549l.143-.39-1.844-5.013h.831l1.377 3.974h.052l1.377-3.974h.831l-2.117 5.714a2.149 2.149 0 0 1-.354.64 1.327 1.327 0 0 1-.49.38 1.516 1.516 0 0 1-.623.123zM1.278 24.79v6.649H.473V24.79h.805zM3.555 28.439v3h-.766v-4.987h.74v.779h.065c.117-.253.294-.457.532-.61.238-.156.545-.234.922-.234.338 0 .633.069.886.208.253.136.45.344.591.623.141.277.211.628.211 1.052v3.169H5.97v-3.117c0-.392-.102-.697-.305-.916-.203-.221-.483-.331-.838-.331-.245 0-.463.053-.656.159-.19.106-.341.261-.451.464s-.166.45-.166.74zM11.67 27.569l-.688.195a1.246 1.246 0 0 0-.192-.334c-.082-.11-.195-.201-.338-.273s-.326-.107-.549-.107c-.305 0-.56.07-.763.211-.201.139-.302.315-.302.529 0 .19.069.341.208.451s.355.202.649.276l.74.182c.446.108.778.274.997.497.219.221.328.505.328.854 0 .286-.082.541-.247.766-.162.225-.39.403-.682.532s-.632.195-1.02.195c-.509 0-.93-.11-1.263-.331s-.544-.543-.633-.968l.727-.182c.069.268.2.47.393.604.195.134.449.201.763.201.357 0 .641-.076.851-.227.212-.154.318-.338.318-.552a.581.581 0 0 0-.182-.435c-.121-.119-.307-.208-.558-.266l-.831-.195c-.457-.108-.792-.276-1.007-.503a1.218 1.218 0 0 1-.318-.86c0-.281.079-.53.237-.747.16-.216.378-.386.653-.51.277-.123.591-.185.942-.185.493 0 .881.108 1.162.325.284.216.485.502.604.857zM15.083 26.452v.649h-2.584v-.649h2.584zm-1.831-1.195h.766v4.753c0 .216.031.379.094.487a.483.483 0 0 0 .247.214.982.982 0 0 0 .321.052c.084 0 .154-.004.208-.013l.13-.026.156.688a1.563 1.563 0 0 1-.217.058 1.583 1.583 0 0 1-.354.032c-.216 0-.429-.047-.636-.14a1.262 1.262 0 0 1-.513-.425c-.134-.191-.201-.431-.201-.721v-4.961zM16.235 31.439v-4.987h.766v4.987h-.766zm.39-5.818a.543.543 0 0 1-.386-.153.49.49 0 0 1-.159-.367.49.49 0 0 1 .159-.367c.108-.102.237-.153.386-.153s.277.051.383.153c.108.102.162.224.162.367s-.054.265-.162.367a.533.533 0 0 1-.383.153zM20.574 26.452v.649H17.99v-.649h2.584zm-1.831-1.195h.766v4.753c0 .216.031.379.094.487a.483.483 0 0 0 .247.214.982.982 0 0 0 .321.052c.084 0 .154-.004.208-.013l.13-.026.156.688a1.544 1.544 0 0 1-.218.058 1.583 1.583 0 0 1-.354.032c-.216 0-.429-.047-.636-.14a1.262 1.262 0 0 1-.513-.425c-.134-.191-.201-.431-.201-.721v-4.961zM24.869 29.4v-2.948h.766v4.987h-.766v-.844h-.052a1.64 1.64 0 0 1-.545.646c-.247.175-.558.263-.935.263-.312 0-.589-.068-.831-.205a1.432 1.432 0 0 1-.571-.623c-.139-.279-.208-.631-.208-1.055v-3.169h.766v3.117c0 .364.102.654.305.87.206.216.468.325.786.325.19 0 .384-.049.581-.146.199-.097.366-.247.5-.448.136-.201.205-.458.205-.77zM29.208 26.452v.649h-2.584v-.649h2.584zm-1.831-1.195h.766v4.753c0 .216.031.379.094.487a.483.483 0 0 0 .247.214.982.982 0 0 0 .321.052c.084 0 .154-.004.208-.013l.13-.026.156.688a1.583 1.583 0 0 1-.218.058 1.583 1.583 0 0 1-.354.032c-.216 0-.429-.047-.636-.14a1.262 1.262 0 0 1-.513-.425c-.134-.191-.201-.431-.201-.721v-4.961zM32.398 31.543c-.481 0-.895-.106-1.244-.318a2.135 2.135 0 0 1-.802-.896c-.186-.385-.279-.833-.279-1.344s.093-.961.279-1.351a2.2 2.2 0 0 1 .786-.916 2.11 2.11 0 0 1 1.182-.331c.26 0 .516.043.769.13s.484.227.692.422c.208.193.373.448.497.766s.185.71.185 1.175v.325h-3.844v-.662h3.065a1.63 1.63 0 0 0-.169-.753 1.268 1.268 0 0 0-.474-.523 1.325 1.325 0 0 0-.721-.192c-.305 0-.569.076-.792.227-.221.149-.391.344-.51.584s-.179.498-.179.773v.442c0 .377.065.696.195.958a1.4 1.4 0 0 0 .549.594c.234.134.505.201.815.201.201 0 .383-.028.545-.084a1.16 1.16 0 0 0 .425-.26c.119-.117.211-.262.276-.435l.74.208a1.638 1.638 0 0 1-.393.662 1.93 1.93 0 0 1-.682.442 2.529 2.529 0 0 1-.912.156z"/>
    </symbol>
    <symbol id="icon-menu" viewBox="0 0 40 32">
      <path stroke-linejoin="miter" stroke-linecap="round" stroke-miterlimit="4" stroke-width="5.12" d="M3.2 3.2h33.28M3.2 16h33.28M3.2 28.8h33.28"></path>
    </symbol>
    <symbol id="icon-Ellipse-18" viewBox="0 0 32 32">
      <path fill="#f9a830" style="fill: var(--color1, #f9a830)" d="M15.516 0.007c0.144-0.005 0.314-0.007 0.484-0.007s0.34 0.003 0.509 0.008l-0.025-0.001c0.065 0.002 0.116 0.055 0.116 0.12 0 0.066-0.054 0.12-0.12 0.12-0.001 0-0.003-0-0.004-0h0c-0.142-0.005-0.309-0.007-0.477-0.007s-0.335 0.003-0.502 0.008l0.024-0.001c-0.001 0-0.002 0-0.004 0-0.066 0-0.12-0.054-0.12-0.12 0-0.065 0.052-0.118 0.116-0.12h0zM14.681 0.173c0 0.003 0 0.007 0 0.011 0 0.062-0.048 0.114-0.109 0.119l-0 0c-0.389 0.035-0.713 0.075-1.033 0.125l0.089-0.011c-0.005 0.001-0.010 0.001-0.015 0.001-0.066 0-0.12-0.054-0.12-0.12 0-0.059 0.042-0.108 0.098-0.118l0.001-0c0.236-0.039 0.564-0.080 0.896-0.111l0.063-0.005c0.003-0 0.007-0 0.011-0 0.062 0 0.114 0.048 0.119 0.109l0 0zM17.319 0.173c0.006-0.061 0.057-0.109 0.119-0.109 0.004 0 0.008 0 0.011 0.001l-0-0c0.323 0.029 0.642 0.067 0.959 0.115 0.058 0.009 0.102 0.059 0.102 0.118 0 0.066-0.054 0.12-0.12 0.12-0.006 0-0.012-0.001-0.019-0.001l0.001 0c-0.232-0.038-0.556-0.079-0.883-0.109l-0.062-0.005c-0.061-0.006-0.109-0.057-0.109-0.119 0-0.004 0-0.008 0.001-0.011l-0 0zM12.783 0.445c0.002 0.008 0.003 0.016 0.003 0.025 0 0.057-0.040 0.105-0.094 0.117l-0.001 0c-0.418 0.088-0.728 0.167-1.035 0.254l0.11-0.027c-0.010 0.003-0.021 0.004-0.032 0.004-0.066 0-0.12-0.054-0.12-0.12 0-0.055 0.037-0.101 0.087-0.115l0.001-0c0.199-0.062 0.515-0.141 0.834-0.211l0.105-0.019c0.008-0.002 0.016-0.003 0.025-0.003 0.057 0 0.105 0.040 0.117 0.094l0 0.001zM19.217 0.445c0.012-0.055 0.060-0.095 0.117-0.095 0.009 0 0.017 0.001 0.026 0.003l-0.001-0c0.424 0.089 0.74 0.169 1.051 0.258l-0.112-0.027c0.050 0.015 0.087 0.061 0.087 0.115 0 0.066-0.054 0.12-0.12 0.12-0.011 0-0.022-0.001-0.032-0.004l0.001 0c-0.196-0.061-0.507-0.139-0.821-0.208l-0.104-0.019c-0.055-0.012-0.095-0.060-0.095-0.117 0-0.009 0.001-0.018 0.003-0.026l-0 0.001zM10.931 0.945c0.004 0.012 0.007 0.025 0.007 0.039 0 0.052-0.033 0.097-0.080 0.113l-0.001 0c-0.408 0.139-0.703 0.254-0.992 0.376l0.103-0.039c-0.014 0.006-0.029 0.009-0.046 0.009-0.066 0-0.12-0.054-0.12-0.12 0-0.050 0.030-0.092 0.073-0.11l0.001-0c0.19-0.085 0.489-0.202 0.792-0.309l0.111-0.034c0.012-0.004 0.025-0.007 0.039-0.007 0.052 0 0.097 0.033 0.113 0.080l0 0.001zM21.069 0.945c0.017-0.047 0.061-0.081 0.113-0.081 0.014 0 0.027 0.002 0.040 0.007l-0.001-0c0.414 0.141 0.713 0.257 1.008 0.382l-0.104-0.039c0.044 0.018 0.074 0.061 0.074 0.111 0 0.066-0.054 0.12-0.12 0.12-0.017 0-0.032-0.003-0.047-0.009l0.001 0c-0.187-0.084-0.482-0.198-0.78-0.304l-0.11-0.034c-0.047-0.017-0.081-0.061-0.081-0.113 0-0.014 0.002-0.027 0.007-0.040l-0 0.001zM9.154 1.666c0.008 0.015 0.012 0.033 0.012 0.053 0 0.047-0.027 0.088-0.067 0.107l-0.001 0c-0.372 0.181-0.648 0.328-0.919 0.484l0.077-0.041c-0.017 0.010-0.038 0.017-0.061 0.017-0.066 0-0.12-0.054-0.12-0.12 0-0.045 0.025-0.085 0.062-0.105l0.001-0c0.197-0.117 0.478-0.267 0.763-0.408l0.093-0.042c0.015-0.008 0.033-0.012 0.053-0.012 0.047 0 0.088 0.027 0.107 0.067l0 0.001zM22.846 1.666c0.020-0.040 0.061-0.067 0.108-0.067 0.019 0 0.037 0.004 0.053 0.012l-0.001-0c0.378 0.183 0.658 0.333 0.933 0.491l-0.078-0.041c0.037 0.021 0.061 0.060 0.061 0.104 0 0.066-0.054 0.12-0.12 0.12-0.022 0-0.042-0.006-0.059-0.016l0.001 0c-0.194-0.115-0.47-0.263-0.751-0.402l-0.092-0.041c-0.040-0.020-0.067-0.061-0.067-0.108 0-0.019 0.004-0.037 0.012-0.053l-0 0.001zM7.477 2.598c0.012 0.018 0.019 0.041 0.019 0.065 0 0.042-0.022 0.079-0.054 0.1l-0 0c-0.321 0.208-0.576 0.386-0.825 0.572l0.042-0.030c-0.020 0.015-0.044 0.023-0.071 0.023-0.066 0-0.12-0.054-0.12-0.12 0-0.039 0.019-0.074 0.048-0.096l0-0c0.21-0.158 0.47-0.339 0.734-0.512l0.061-0.038c0.018-0.012 0.041-0.019 0.065-0.019 0.042 0 0.079 0.022 0.1 0.054l0 0zM24.523 2.598c0.022-0.033 0.059-0.055 0.101-0.055 0.024 0 0.047 0.007 0.066 0.020l-0-0c0.325 0.211 0.584 0.392 0.838 0.58l-0.043-0.030c0.030 0.022 0.048 0.057 0.048 0.096 0 0.066-0.054 0.12-0.12 0.12-0.027 0-0.051-0.009-0.071-0.023l0 0c-0.207-0.155-0.462-0.334-0.723-0.505l-0.060-0.037c-0.033-0.022-0.055-0.059-0.055-0.1 0-0.024 0.007-0.047 0.020-0.066l-0 0zM5.925 3.724c0.017 0.021 0.028 0.047 0.028 0.077 0 0.037-0.017 0.070-0.043 0.092l-0 0c-0.263 0.22-0.495 0.426-0.72 0.639l0.008-0.007c-0.022 0.021-0.051 0.034-0.083 0.034-0.066 0-0.12-0.054-0.12-0.12 0-0.035 0.015-0.066 0.039-0.088l0-0c0.221-0.209 0.457-0.418 0.698-0.621l0.025-0.020c0.021-0.017 0.047-0.028 0.077-0.028 0.037 0 0.070 0.017 0.092 0.043l0 0zM26.075 3.724c0.022-0.026 0.055-0.043 0.092-0.043 0.029 0 0.056 0.010 0.077 0.028l-0-0c0.267 0.223 0.502 0.432 0.731 0.649l-0.008-0.007c0.023 0.022 0.036 0.052 0.036 0.086 0 0.066-0.054 0.12-0.12 0.12-0.031 0-0.060-0.012-0.081-0.032l0 0c-0.218-0.206-0.45-0.412-0.688-0.612l-0.025-0.020c-0.026-0.022-0.043-0.055-0.043-0.092 0-0.029 0.011-0.056 0.028-0.077l-0 0zM4.519 5.028c0.023 0.022 0.038 0.053 0.038 0.087 0 0.032-0.012 0.061-0.033 0.082l0-0c-0.206 0.218-0.412 0.45-0.612 0.688l-0.020 0.025c-0.022 0.027-0.056 0.045-0.093 0.045-0.066 0-0.12-0.054-0.12-0.12 0-0.030 0.011-0.057 0.029-0.079l-0 0c0.223-0.266 0.432-0.502 0.649-0.731l-0.007 0.008c0.022-0.023 0.053-0.038 0.087-0.038 0.032 0 0.061 0.012 0.082 0.033l-0-0zM27.481 5.028c0.021-0.020 0.050-0.033 0.082-0.033 0.034 0 0.065 0.014 0.087 0.038l0 0c0.209 0.221 0.418 0.457 0.621 0.698l0.020 0.025c0.017 0.021 0.027 0.047 0.027 0.076 0 0.066-0.054 0.12-0.12 0.12-0.037 0-0.070-0.016-0.091-0.042l-0-0c-0.22-0.263-0.426-0.495-0.639-0.72l0.007 0.008c-0.020-0.021-0.033-0.050-0.033-0.082 0-0.034 0.014-0.065 0.038-0.087l0-0zM3.279 6.492c0.030 0.022 0.049 0.057 0.049 0.096 0 0.027-0.009 0.051-0.024 0.071l0-0c-0.155 0.207-0.334 0.462-0.505 0.723l-0.037 0.060c-0.022 0.033-0.059 0.055-0.1 0.055-0.066 0-0.12-0.054-0.12-0.12 0-0.024 0.007-0.047 0.020-0.066l-0 0c0.211-0.325 0.392-0.585 0.58-0.838l-0.030 0.043c0.022-0.030 0.057-0.049 0.096-0.049 0.027 0 0.051 0.009 0.071 0.024l-0-0zM28.721 6.492c0.020-0.015 0.044-0.023 0.071-0.023 0.039 0 0.074 0.019 0.096 0.048l0 0c0.158 0.21 0.339 0.469 0.512 0.734l0.038 0.061c0.012 0.018 0.019 0.041 0.019 0.065 0 0.066-0.054 0.12-0.12 0.12-0.042 0-0.079-0.022-0.1-0.054l-0-0c-0.208-0.321-0.386-0.576-0.572-0.825l0.030 0.042c-0.015-0.020-0.023-0.044-0.023-0.071 0-0.039 0.019-0.074 0.048-0.096l0-0zM2.225 8.093c0.037 0.021 0.061 0.060 0.061 0.104 0 0.022-0.006 0.042-0.016 0.060l0-0.001c-0.115 0.194-0.263 0.47-0.402 0.751l-0.041 0.092c-0.020 0.040-0.061 0.067-0.108 0.067-0.066 0-0.12-0.054-0.12-0.12 0-0.019 0.004-0.037 0.012-0.053l-0 0.001c0.183-0.378 0.333-0.658 0.491-0.933l-0.041 0.078c0.021-0.037 0.060-0.061 0.104-0.061 0.022 0 0.042 0.006 0.060 0.016l-0.001-0zM29.776 8.093c0.017-0.010 0.037-0.015 0.059-0.015 0.044 0 0.083 0.024 0.104 0.060l0 0.001c0.117 0.197 0.267 0.478 0.408 0.763l0.042 0.093c0.008 0.015 0.012 0.033 0.012 0.053 0 0.066-0.054 0.12-0.12 0.12-0.047 0-0.088-0.027-0.107-0.067l-0-0.001c-0.181-0.372-0.328-0.649-0.484-0.92l0.041 0.077c-0.010-0.017-0.015-0.037-0.015-0.059 0-0.044 0.024-0.083 0.060-0.104l0.001-0zM1.371 9.811c0.044 0.018 0.074 0.061 0.074 0.111 0 0.017-0.003 0.032-0.009 0.047l0-0.001c-0.084 0.187-0.199 0.482-0.304 0.78l-0.034 0.109c-0.017 0.047-0.061 0.080-0.113 0.080-0.066 0-0.12-0.054-0.12-0.12 0-0.014 0.002-0.027 0.006-0.039l-0 0.001c0.141-0.414 0.257-0.713 0.382-1.008l-0.039 0.104c0.018-0.044 0.061-0.074 0.111-0.074 0.017 0 0.032 0.003 0.047 0.009l-0.001-0zM30.629 9.811c0.014-0.006 0.029-0.009 0.046-0.009 0.050 0 0.092 0.030 0.11 0.073l0 0.001c0.085 0.19 0.201 0.489 0.308 0.792l0.034 0.111c0.004 0.011 0.006 0.024 0.006 0.038 0 0.066-0.054 0.12-0.12 0.12-0.052 0-0.096-0.033-0.113-0.079l-0-0.001c-0.139-0.408-0.253-0.702-0.376-0.992l0.039 0.102c-0.006-0.014-0.009-0.029-0.009-0.046 0-0.050 0.030-0.092 0.073-0.11l0.001-0zM0.731 11.619c0.051 0.015 0.088 0.061 0.088 0.115 0 0.011-0.002 0.023-0.005 0.033l0-0.001c-0.061 0.196-0.139 0.507-0.208 0.821l-0.019 0.104c-0.012 0.055-0.060 0.095-0.117 0.095-0.066 0-0.12-0.054-0.12-0.12 0-0.009 0.001-0.018 0.003-0.026l-0 0.001c0.089-0.424 0.169-0.74 0.258-1.051l-0.027 0.112c0.014-0.051 0.061-0.088 0.115-0.088 0.011 0 0.022 0.002 0.033 0.005l-0.001-0zM31.269 11.619c0.010-0.003 0.021-0.004 0.032-0.004 0.055 0 0.101 0.037 0.115 0.087l0 0.001c0.062 0.199 0.141 0.515 0.211 0.834l0.019 0.105c0.001 0.007 0.002 0.014 0.002 0.022 0 0.066-0.054 0.12-0.12 0.12-0.056 0-0.103-0.039-0.116-0.091l-0-0.001c-0.088-0.418-0.167-0.728-0.254-1.035l0.027 0.11c-0.003-0.010-0.004-0.021-0.004-0.032 0-0.055 0.037-0.101 0.087-0.115l0.001-0zM0.316 13.492c0.058 0.009 0.102 0.059 0.102 0.118 0 0.006-0.001 0.012-0.001 0.019l0-0.001c-0.038 0.232-0.079 0.556-0.109 0.883l-0.005 0.062c-0.006 0.061-0.057 0.109-0.119 0.109-0.066 0-0.12-0.054-0.12-0.12 0-0.004 0-0.008 0.001-0.011l-0 0c0.035-0.395 0.076-0.724 0.127-1.049l-0.012 0.090c0.009-0.058 0.059-0.102 0.118-0.102 0.006 0 0.013 0.001 0.019 0.001l-0.001-0zM31.684 13.492c0.005-0.001 0.012-0.001 0.018-0.001 0.060 0 0.109 0.044 0.118 0.101l0 0.001c0.039 0.236 0.080 0.564 0.111 0.896l0.005 0.063c0 0.003 0 0.007 0 0.011 0 0.066-0.054 0.12-0.12 0.12-0.062 0-0.114-0.048-0.119-0.109l-0-0c-0.035-0.389-0.075-0.713-0.125-1.033l0.011 0.089c-0.001-0.005-0.001-0.012-0.001-0.018 0-0.060 0.044-0.109 0.101-0.118l0.001-0zM0.13 15.399c0.065 0.002 0.116 0.055 0.116 0.12 0 0.001-0 0.003-0 0.004v-0c-0.005 0.142-0.007 0.309-0.007 0.477s0.003 0.335 0.008 0.502l-0.001-0.024c0 0.001 0 0.002 0 0.004 0 0.066-0.054 0.12-0.12 0.12-0.065 0-0.118-0.052-0.12-0.116v-0c-0.005-0.144-0.007-0.314-0.007-0.484s0.003-0.34 0.008-0.509l-0.001 0.025c0.002-0.065 0.055-0.116 0.12-0.116 0.001 0 0.003 0 0.004 0h-0zM31.87 15.399c0.001-0 0.002-0 0.004-0 0.065 0 0.118 0.052 0.12 0.116v0c0.005 0.144 0.007 0.314 0.007 0.484s-0.003 0.34-0.008 0.509l0.001-0.025c-0.002 0.065-0.055 0.116-0.12 0.116-0.066 0-0.12-0.054-0.12-0.12 0-0.001 0-0.003 0-0.004v0c0.005-0.142 0.007-0.309 0.007-0.477s-0.003-0.335-0.008-0.502l0.001 0.024c-0-0.001-0-0.002-0-0.004 0-0.065 0.052-0.118 0.116-0.12h0zM0.173 17.319c0.003-0 0.007-0 0.011-0 0.062 0 0.114 0.048 0.119 0.109l0 0c0.035 0.389 0.075 0.713 0.125 1.033l-0.011-0.089c0.001 0.005 0.001 0.010 0.001 0.015 0 0.066-0.054 0.12-0.12 0.12-0.059 0-0.108-0.042-0.118-0.098l-0-0.001c-0.039-0.236-0.080-0.564-0.111-0.896l-0.005-0.063c-0-0.003-0-0.007-0-0.011 0-0.062 0.048-0.114 0.109-0.119l0-0zM31.827 17.319c0.061 0.006 0.109 0.057 0.109 0.119 0 0.004-0 0.008-0.001 0.011l0-0c-0.035 0.395-0.076 0.723-0.127 1.049l0.012-0.090c-0.009 0.058-0.059 0.102-0.118 0.102-0.066 0-0.12-0.054-0.12-0.12 0-0.006 0-0.012 0.001-0.019l-0 0.001c0.038-0.232 0.079-0.556 0.109-0.883l0.005-0.062c0.006-0.061 0.057-0.109 0.119-0.109 0.004 0 0.008 0 0.011 0.001l-0-0zM0.445 19.217c0.008-0.002 0.016-0.003 0.025-0.003 0.057 0 0.105 0.040 0.117 0.094l0 0.001c0.088 0.418 0.167 0.728 0.254 1.035l-0.027-0.11c0.003 0.010 0.004 0.021 0.004 0.032 0 0.066-0.054 0.12-0.12 0.12-0.055 0-0.101-0.037-0.115-0.087l-0-0.001c-0.062-0.199-0.141-0.515-0.211-0.834l-0.019-0.105c-0.002-0.008-0.003-0.016-0.003-0.025 0-0.057 0.040-0.105 0.094-0.117l0.001-0zM31.555 19.217c0.055 0.012 0.095 0.060 0.095 0.117 0 0.009-0.001 0.017-0.003 0.026l0-0.001c-0.089 0.424-0.169 0.739-0.258 1.051l0.027-0.112c-0.015 0.050-0.061 0.087-0.115 0.087-0.066 0-0.12-0.054-0.12-0.12 0-0.011 0.002-0.022 0.004-0.032l-0 0.001c0.061-0.197 0.139-0.507 0.208-0.821l0.019-0.104c0.012-0.055 0.060-0.095 0.117-0.095 0.009 0 0.017 0.001 0.026 0.003l-0.001-0zM0.945 21.069c0.012-0.004 0.025-0.007 0.039-0.007 0.052 0 0.097 0.033 0.113 0.080l0 0.001c0.139 0.408 0.254 0.703 0.376 0.992l-0.039-0.103c0.006 0.014 0.009 0.029 0.009 0.046 0 0.066-0.054 0.12-0.12 0.12-0.050 0-0.092-0.030-0.11-0.073l-0-0.001c-0.085-0.19-0.202-0.489-0.309-0.792l-0.034-0.111c-0.004-0.012-0.007-0.025-0.007-0.039 0-0.052 0.033-0.097 0.080-0.113l0.001-0zM31.055 21.069c0.047 0.017 0.081 0.061 0.081 0.113 0 0.014-0.002 0.027-0.007 0.040l0-0.001c-0.141 0.415-0.258 0.714-0.382 1.008l0.039-0.105c-0.018 0.044-0.061 0.074-0.111 0.074-0.066 0-0.12-0.054-0.12-0.12 0-0.017 0.003-0.032 0.009-0.047l-0 0.001c0.084-0.187 0.199-0.482 0.304-0.78l0.034-0.109c0.017-0.047 0.061-0.081 0.113-0.081 0.014 0 0.027 0.002 0.040 0.007l-0.001-0zM1.666 22.846c0.015-0.008 0.033-0.012 0.053-0.012 0.047 0 0.088 0.027 0.107 0.067l0 0.001c0.181 0.372 0.328 0.648 0.484 0.919l-0.041-0.077c0.010 0.017 0.017 0.038 0.017 0.061 0 0.066-0.054 0.12-0.12 0.12-0.045 0-0.085-0.025-0.105-0.062l-0-0.001c-0.117-0.197-0.267-0.478-0.408-0.763l-0.042-0.093c-0.008-0.015-0.012-0.033-0.012-0.053 0-0.047 0.027-0.088 0.067-0.107l0.001-0zM30.334 22.846c0.040 0.020 0.067 0.061 0.067 0.108 0 0.019-0.004 0.037-0.012 0.053l0-0.001c-0.183 0.378-0.333 0.658-0.491 0.933l0.041-0.078c-0.021 0.037-0.060 0.061-0.104 0.061-0.066 0-0.12-0.054-0.12-0.12 0-0.022 0.006-0.042 0.016-0.059l-0 0.001c0.115-0.194 0.263-0.47 0.402-0.751l0.041-0.092c0.020-0.040 0.061-0.067 0.108-0.067 0.019 0 0.037 0.004 0.053 0.012l-0.001-0zM2.598 24.523c0.018-0.012 0.041-0.019 0.065-0.019 0.042 0 0.079 0.022 0.1 0.054l0 0c0.208 0.321 0.386 0.576 0.572 0.825l-0.030-0.042c0.015 0.020 0.023 0.044 0.023 0.071 0 0.066-0.054 0.12-0.12 0.12-0.039 0-0.074-0.019-0.096-0.048l-0-0c-0.158-0.21-0.339-0.47-0.512-0.734l-0.038-0.061c-0.012-0.018-0.019-0.041-0.019-0.065 0-0.042 0.022-0.079 0.054-0.1l0-0zM29.402 24.523c0.033 0.022 0.055 0.059 0.055 0.101 0 0.024-0.007 0.047-0.020 0.066l0-0c-0.211 0.326-0.392 0.585-0.58 0.838l0.030-0.043c-0.022 0.030-0.057 0.049-0.097 0.049-0.066 0-0.12-0.054-0.12-0.12 0-0.027 0.009-0.052 0.024-0.072l-0 0c0.155-0.207 0.334-0.462 0.505-0.723l0.037-0.060c0.022-0.033 0.059-0.055 0.101-0.055 0.024 0 0.047 0.007 0.066 0.020l-0-0zM3.724 26.075c0.021-0.017 0.047-0.028 0.077-0.028 0.037 0 0.070 0.017 0.092 0.043l0 0c0.22 0.263 0.426 0.495 0.639 0.72l-0.007-0.008c0.021 0.022 0.034 0.051 0.034 0.083 0 0.066-0.054 0.12-0.12 0.12-0.035 0-0.066-0.015-0.088-0.039l-0-0c-0.209-0.221-0.418-0.457-0.621-0.698l-0.020-0.025c-0.017-0.021-0.028-0.047-0.028-0.077 0-0.037 0.017-0.070 0.043-0.092l0-0zM28.276 26.075c0.026 0.022 0.043 0.055 0.043 0.092 0 0.029-0.011 0.056-0.028 0.077l0-0c-0.223 0.267-0.432 0.502-0.649 0.731l0.007-0.008c-0.022 0.023-0.052 0.036-0.086 0.036-0.066 0-0.12-0.054-0.12-0.12 0-0.031 0.012-0.060 0.032-0.081l-0 0c0.206-0.218 0.412-0.45 0.612-0.688l0.020-0.025c0.022-0.026 0.055-0.043 0.092-0.043 0.029 0 0.056 0.011 0.077 0.028l-0-0zM5.028 27.481c0.022-0.023 0.053-0.038 0.087-0.038 0.032 0 0.061 0.012 0.082 0.033l-0-0c0.218 0.206 0.45 0.412 0.688 0.612l0.025 0.020c0.026 0.022 0.043 0.055 0.043 0.092 0 0.066-0.054 0.12-0.12 0.12-0.029 0-0.056-0.010-0.077-0.028l0 0c-0.266-0.223-0.502-0.432-0.731-0.649l0.008 0.007c-0.023-0.022-0.038-0.053-0.038-0.087 0-0.032 0.012-0.061 0.033-0.082l-0 0zM26.972 27.481c0.020 0.021 0.033 0.050 0.033 0.082 0 0.034-0.014 0.065-0.038 0.087l-0 0c-0.221 0.209-0.457 0.418-0.698 0.621l-0.025 0.020c-0.021 0.017-0.047 0.027-0.076 0.027-0.066 0-0.12-0.054-0.12-0.12 0-0.037 0.017-0.070 0.042-0.091l0-0c0.263-0.22 0.495-0.426 0.72-0.639l-0.008 0.007c0.021-0.020 0.050-0.033 0.082-0.033 0.034 0 0.065 0.014 0.087 0.038l0 0zM6.492 28.721c0.022-0.030 0.057-0.049 0.096-0.049 0.027 0 0.051 0.009 0.071 0.024l-0-0c0.207 0.155 0.462 0.334 0.723 0.505l0.060 0.037c0.033 0.022 0.055 0.059 0.055 0.101 0 0.066-0.054 0.12-0.12 0.12-0.024 0-0.047-0.007-0.066-0.020l0 0c-0.326-0.211-0.585-0.392-0.838-0.58l0.043 0.030c-0.030-0.022-0.049-0.057-0.049-0.096 0-0.027 0.009-0.051 0.024-0.071l-0 0zM25.508 28.721c0.015 0.020 0.023 0.044 0.023 0.071 0 0.039-0.019 0.074-0.048 0.096l-0 0c-0.21 0.158-0.469 0.339-0.734 0.512l-0.061 0.038c-0.018 0.012-0.041 0.019-0.065 0.019-0.066 0-0.12-0.054-0.12-0.12 0-0.042 0.022-0.079 0.054-0.1l0-0c0.321-0.208 0.576-0.386 0.825-0.572l-0.042 0.030c0.020-0.015 0.044-0.023 0.071-0.023 0.039 0 0.074 0.019 0.096 0.048l0 0zM8.093 29.776c0.021-0.037 0.060-0.061 0.104-0.061 0.022 0 0.042 0.006 0.059 0.016l-0.001-0c0.194 0.115 0.47 0.263 0.751 0.402l0.092 0.041c0.040 0.020 0.067 0.061 0.067 0.108 0 0.066-0.054 0.12-0.12 0.12-0.019 0-0.037-0.004-0.053-0.012l0.001 0c-0.378-0.183-0.658-0.333-0.933-0.491l0.078 0.041c-0.037-0.021-0.061-0.060-0.061-0.104 0-0.022 0.006-0.042 0.016-0.059l-0 0.001zM23.907 29.776c0.010 0.017 0.015 0.037 0.015 0.059 0 0.044-0.024 0.083-0.060 0.104l-0.001 0c-0.197 0.117-0.478 0.267-0.763 0.408l-0.093 0.042c-0.015 0.008-0.033 0.012-0.052 0.012-0.066 0-0.12-0.054-0.12-0.12 0-0.047 0.027-0.088 0.067-0.107l0.001-0c0.372-0.181 0.648-0.328 0.92-0.484l-0.077 0.041c0.017-0.010 0.037-0.015 0.059-0.015 0.044 0 0.083 0.024 0.104 0.060l0 0.001zM9.811 30.629c0.018-0.044 0.061-0.074 0.111-0.074 0.017 0 0.032 0.003 0.047 0.009l-0.001-0c0.188 0.084 0.482 0.199 0.781 0.304l0.109 0.034c0.047 0.017 0.080 0.061 0.080 0.113 0 0.066-0.054 0.12-0.12 0.12-0.014 0-0.027-0.002-0.039-0.006l0.001 0c-0.415-0.141-0.714-0.258-1.008-0.382l0.104 0.039c-0.044-0.018-0.074-0.061-0.074-0.111 0-0.017 0.003-0.032 0.009-0.047l-0 0.001zM22.189 30.629c0.006 0.014 0.009 0.029 0.009 0.046 0 0.050-0.030 0.092-0.073 0.11l-0.001 0c-0.19 0.085-0.489 0.201-0.792 0.308l-0.111 0.034c-0.011 0.004-0.024 0.006-0.038 0.006-0.066 0-0.12-0.054-0.12-0.12 0-0.052 0.033-0.096 0.079-0.113l0.001-0c0.408-0.139 0.702-0.253 0.992-0.376l-0.102 0.039c0.014-0.006 0.029-0.009 0.046-0.009 0.050 0 0.092 0.030 0.11 0.073l0 0.001zM11.619 31.269c0.015-0.051 0.061-0.088 0.115-0.088 0.011 0 0.022 0.002 0.033 0.005l-0.001-0c0.197 0.061 0.507 0.139 0.821 0.208l0.104 0.019c0.053 0.013 0.092 0.060 0.092 0.116 0 0.066-0.054 0.12-0.12 0.12-0.008 0-0.015-0.001-0.023-0.002l0.001 0c-0.424-0.089-0.739-0.169-1.051-0.258l0.112 0.027c-0.051-0.015-0.088-0.061-0.088-0.115 0-0.011 0.002-0.023 0.005-0.033l-0 0.001zM20.381 31.269c0.003 0.010 0.004 0.021 0.004 0.032 0 0.055-0.037 0.101-0.087 0.115l-0.001 0c-0.199 0.062-0.515 0.141-0.834 0.211l-0.105 0.019c-0.007 0.001-0.014 0.002-0.022 0.002-0.066 0-0.12-0.054-0.12-0.12 0-0.056 0.039-0.103 0.091-0.116l0.001-0c0.418-0.088 0.728-0.167 1.035-0.254l-0.11 0.027c0.010-0.003 0.021-0.004 0.032-0.004 0.055 0 0.101 0.037 0.115 0.087l0 0.001zM13.492 31.684c0.009-0.058 0.059-0.102 0.118-0.102 0.006 0 0.012 0 0.018 0.001l-0.001-0c0.232 0.038 0.556 0.079 0.883 0.109l0.062 0.005c0.061 0.006 0.109 0.057 0.109 0.119 0 0.066-0.054 0.12-0.12 0.12-0.004 0-0.008-0-0.011-0l0 0c-0.395-0.035-0.723-0.076-1.049-0.127l0.090 0.012c-0.058-0.009-0.102-0.059-0.102-0.118 0-0.006 0.001-0.012 0.001-0.019l-0 0.001zM18.509 31.684c0.001 0.005 0.001 0.012 0.001 0.018 0 0.060-0.044 0.109-0.101 0.118l-0.001 0c-0.236 0.039-0.564 0.080-0.896 0.111l-0.063 0.005c-0.003 0-0.007 0-0.011 0-0.066 0-0.12-0.054-0.12-0.12 0-0.062 0.048-0.114 0.109-0.119l0-0c0.389-0.035 0.713-0.075 1.033-0.125l-0.089 0.011c0.005-0.001 0.012-0.001 0.018-0.001 0.060 0 0.109 0.044 0.118 0.101l0 0.001zM15.399 31.87c0.002-0.065 0.055-0.116 0.12-0.116 0.001 0 0.002 0 0.004 0h-0c0.142 0.005 0.309 0.007 0.477 0.007s0.335-0.003 0.502-0.008l-0.024 0.001c0.001-0 0.002-0 0.004-0 0.066 0 0.12 0.054 0.12 0.12 0 0.065-0.052 0.118-0.116 0.12h-0c-0.144 0.005-0.314 0.007-0.484 0.007s-0.34-0.003-0.509-0.008l0.025 0.001c-0.065-0.002-0.116-0.055-0.116-0.12 0-0.001 0-0.003 0-0.004v0z"></path>
    </symbol>
    <symbol id="icon-ellipse-why" viewBox="0 0 9 32">
      <path fill="#f9a830" style="fill: var(--color1, #f9a830)" d="M-7.533 0.007c0.144-0.005 0.314-0.007 0.484-0.007s0.34 0.003 0.509 0.008l-0.025-0.001c0.064 0.003 0.115 0.055 0.115 0.12 0 0.066-0.054 0.12-0.12 0.12-0.001 0-0.001 0-0.002-0h0c-0.142-0.005-0.309-0.007-0.477-0.007s-0.335 0.003-0.502 0.008l0.024-0.001c-0.001 0-0.001 0-0.002 0-0.066 0-0.12-0.054-0.12-0.12 0-0.064 0.051-0.117 0.114-0.12h0zM-8.367 0.173c0 0.003 0.001 0.007 0.001 0.011 0 0.062-0.048 0.114-0.109 0.119l-0 0c-0.389 0.035-0.713 0.075-1.033 0.125l0.089-0.011c-0.006 0.001-0.013 0.002-0.020 0.002-0.066 0-0.12-0.054-0.12-0.12 0-0.061 0.045-0.111 0.103-0.119l0.001-0c0.236-0.039 0.564-0.080 0.896-0.111l0.063-0.005c0.003-0 0.007-0 0.011-0 0.062 0 0.114 0.048 0.119 0.109l0 0zM-5.729 0.173c0.006-0.061 0.057-0.109 0.119-0.109 0.004 0 0.008 0 0.011 0.001l-0-0c0.395 0.035 0.724 0.076 1.049 0.127l-0.090-0.012c0.059 0.008 0.104 0.058 0.104 0.119 0 0.066-0.054 0.12-0.12 0.12-0.007 0-0.014-0.001-0.021-0.002l0.001 0c-0.232-0.038-0.556-0.079-0.883-0.109l-0.062-0.005c-0.061-0.006-0.109-0.057-0.109-0.119 0-0.004 0-0.008 0.001-0.011l-0 0zM-10.265 0.445c0.002 0.008 0.003 0.016 0.003 0.025 0 0.057-0.040 0.105-0.094 0.117l-0.001 0c-0.418 0.088-0.728 0.167-1.035 0.254l0.11-0.027c-0.010 0.003-0.021 0.004-0.032 0.004-0.066 0-0.12-0.054-0.12-0.12 0-0.055 0.037-0.101 0.087-0.115l0.001-0c0.199-0.062 0.515-0.141 0.834-0.211l0.105-0.019c0.008-0.002 0.016-0.003 0.025-0.003 0.057 0 0.105 0.040 0.117 0.094l0 0.001zM-3.831 0.445c0.012-0.055 0.060-0.095 0.117-0.095 0.009 0 0.018 0.001 0.026 0.003l-0.001-0c0.424 0.089 0.74 0.169 1.051 0.258l-0.112-0.027c0.051 0.015 0.088 0.061 0.088 0.115 0 0.066-0.054 0.12-0.12 0.12-0.011 0-0.022-0.002-0.033-0.005l0.001 0c-0.196-0.061-0.507-0.139-0.821-0.208l-0.104-0.019c-0.055-0.012-0.095-0.060-0.095-0.117 0-0.009 0.001-0.018 0.003-0.026l-0 0.001zM-12.117 0.945c0.004 0.012 0.007 0.025 0.007 0.039 0 0.052-0.033 0.097-0.080 0.113l-0.001 0c-0.408 0.139-0.703 0.254-0.992 0.376l0.103-0.039c-0.014 0.006-0.029 0.009-0.046 0.009-0.066 0-0.12-0.054-0.12-0.12 0-0.050 0.030-0.092 0.073-0.11l0.001-0c0.19-0.085 0.489-0.202 0.792-0.309l0.111-0.034c0.012-0.004 0.025-0.007 0.039-0.007 0.052 0 0.097 0.033 0.113 0.080l0 0.001zM-1.98 0.945c0.017-0.047 0.061-0.081 0.113-0.081 0.014 0 0.027 0.002 0.040 0.007l-0.001-0c0.414 0.141 0.713 0.257 1.008 0.382l-0.104-0.039c0.043 0.019 0.073 0.061 0.073 0.11 0 0.066-0.054 0.12-0.12 0.12-0.016 0-0.031-0.003-0.045-0.009l0.001 0c-0.187-0.084-0.482-0.198-0.78-0.304l-0.11-0.034c-0.047-0.017-0.081-0.061-0.081-0.113 0-0.014 0.002-0.027 0.007-0.040l-0 0.001zM-13.894 1.667c0.008 0.015 0.012 0.033 0.012 0.052 0 0.047-0.027 0.088-0.067 0.107l-0.001 0c-0.372 0.181-0.648 0.328-0.919 0.484l0.077-0.041c-0.017 0.010-0.038 0.017-0.061 0.017-0.066 0-0.12-0.054-0.12-0.12 0-0.045 0.025-0.085 0.062-0.105l0.001-0c0.197-0.117 0.478-0.267 0.763-0.408l0.093-0.042c0.015-0.008 0.033-0.012 0.053-0.012 0.047 0 0.088 0.027 0.107 0.067l0 0.001zM-0.203 1.667c0.020-0.040 0.061-0.067 0.108-0.067 0.019 0 0.037 0.004 0.053 0.012l-0.001-0c0.378 0.183 0.658 0.333 0.933 0.491l-0.078-0.041c0.037 0.021 0.061 0.060 0.061 0.104 0 0.066-0.054 0.12-0.12 0.12-0.022 0-0.042-0.006-0.060-0.016l0.001 0c-0.194-0.115-0.471-0.263-0.751-0.402l-0.091-0.041c-0.040-0.020-0.067-0.061-0.067-0.108 0-0.019 0.004-0.037 0.012-0.053l-0 0.001zM-15.571 2.598c0.036 0.055 0.020 0.13-0.035 0.166-0.321 0.208-0.576 0.386-0.825 0.571l0.042-0.030c-0.020 0.015-0.044 0.023-0.071 0.023-0.066 0-0.12-0.054-0.12-0.12 0-0.039 0.019-0.074 0.048-0.096l0-0c0.21-0.158 0.47-0.339 0.734-0.512l0.061-0.038c0.056-0.036 0.13-0.020 0.166 0.035zM1.474 2.598c0.022-0.033 0.059-0.055 0.101-0.055 0.024 0 0.047 0.007 0.066 0.020l-0-0c0.325 0.211 0.584 0.392 0.838 0.58l-0.043-0.030c0.030 0.022 0.049 0.057 0.049 0.096 0 0.066-0.054 0.12-0.12 0.12-0.027 0-0.051-0.009-0.071-0.024l0 0c-0.207-0.155-0.462-0.334-0.723-0.505l-0.060-0.037c-0.033-0.022-0.055-0.059-0.055-0.1 0-0.024 0.007-0.047 0.020-0.066l-0 0zM-17.123 3.724c0.017 0.021 0.028 0.047 0.028 0.077 0 0.037-0.017 0.070-0.043 0.092l-0 0c-0.263 0.22-0.495 0.426-0.72 0.639l0.008-0.007c-0.021 0.020-0.050 0.032-0.082 0.032-0.066 0-0.12-0.054-0.12-0.12 0-0.034 0.014-0.065 0.037-0.087l0-0c0.221-0.209 0.457-0.418 0.698-0.621l0.025-0.020c0.021-0.017 0.047-0.028 0.077-0.028 0.037 0 0.070 0.017 0.092 0.043l0 0zM3.027 3.724c0.022-0.026 0.055-0.043 0.092-0.043 0.029 0 0.056 0.010 0.077 0.028l-0-0c0.267 0.223 0.502 0.432 0.731 0.649l-0.008-0.007c0.023 0.022 0.037 0.053 0.037 0.087 0 0.066-0.054 0.12-0.12 0.12-0.032 0-0.060-0.012-0.082-0.032l0 0c-0.218-0.206-0.45-0.412-0.688-0.612l-0.025-0.020c-0.026-0.022-0.043-0.055-0.043-0.092 0-0.029 0.010-0.056 0.028-0.077l-0 0zM-18.529 5.028c0.023 0.022 0.038 0.053 0.038 0.087 0 0.032-0.012 0.061-0.033 0.082l0-0c-0.206 0.218-0.412 0.45-0.612 0.688l-0.020 0.025c-0.022 0.026-0.055 0.043-0.092 0.043-0.066 0-0.12-0.054-0.12-0.12 0-0.029 0.011-0.056 0.028-0.077l-0 0c0.223-0.266 0.432-0.502 0.649-0.731l-0.007 0.008c0.022-0.023 0.053-0.038 0.087-0.038 0.032 0 0.061 0.012 0.082 0.033l-0-0zM4.433 5.028c0.021-0.020 0.050-0.033 0.082-0.033 0.034 0 0.065 0.014 0.087 0.038l0 0c0.209 0.221 0.418 0.457 0.621 0.698l0.020 0.025c0.019 0.021 0.030 0.049 0.030 0.079 0 0.066-0.054 0.12-0.12 0.12-0.038 0-0.072-0.018-0.094-0.045l-0-0c-0.22-0.263-0.426-0.495-0.639-0.72l0.007 0.008c-0.020-0.021-0.033-0.050-0.033-0.082 0-0.034 0.014-0.065 0.038-0.087l0-0zM-19.769 6.492c0.030 0.022 0.049 0.057 0.049 0.096 0 0.027-0.009 0.051-0.024 0.071l0-0c-0.155 0.207-0.334 0.462-0.505 0.723l-0.037 0.060c-0.022 0.033-0.059 0.055-0.101 0.055-0.066 0-0.12-0.054-0.12-0.12 0-0.024 0.007-0.047 0.020-0.066l-0 0c0.211-0.325 0.392-0.585 0.58-0.838l-0.030 0.043c0.022-0.030 0.057-0.049 0.096-0.049 0.027 0 0.051 0.009 0.071 0.024l-0-0zM5.672 6.492c0.020-0.015 0.044-0.023 0.071-0.023 0.039 0 0.074 0.019 0.096 0.048l0 0c0.158 0.21 0.339 0.469 0.512 0.734l0.038 0.061c0.012 0.018 0.019 0.041 0.019 0.065 0 0.066-0.054 0.12-0.12 0.12-0.042 0-0.079-0.022-0.1-0.054l-0-0c-0.208-0.321-0.386-0.576-0.572-0.825l0.030 0.042c-0.015-0.020-0.023-0.044-0.023-0.071 0-0.039 0.019-0.074 0.048-0.096l0-0zM-20.824 8.093c0.037 0.021 0.061 0.060 0.061 0.104 0 0.022-0.006 0.042-0.016 0.059l0-0.001c-0.115 0.194-0.263 0.47-0.402 0.751l-0.041 0.091c-0.020 0.039-0.060 0.066-0.107 0.066-0.066 0-0.12-0.054-0.12-0.12 0-0.019 0.004-0.036 0.012-0.052l-0 0.001c0.183-0.378 0.333-0.658 0.491-0.933l-0.041 0.078c0.021-0.037 0.060-0.061 0.104-0.061 0.022 0 0.042 0.006 0.060 0.016l-0.001-0zM6.727 8.093c0.017-0.010 0.037-0.015 0.059-0.015 0.044 0 0.083 0.024 0.104 0.060l0 0.001c0.117 0.197 0.267 0.478 0.408 0.763l0.042 0.093c0.007 0.015 0.011 0.033 0.011 0.051 0 0.066-0.054 0.12-0.12 0.12-0.046 0-0.087-0.026-0.107-0.065l-0-0.001c-0.181-0.372-0.328-0.648-0.484-0.919l0.040 0.077c-0.010-0.017-0.015-0.037-0.015-0.059 0-0.044 0.024-0.083 0.060-0.104l0.001-0zM-21.678 9.811c0.044 0.018 0.074 0.061 0.074 0.111 0 0.017-0.003 0.032-0.009 0.047l0-0.001c-0.084 0.188-0.199 0.482-0.304 0.781l-0.034 0.109c-0.017 0.047-0.061 0.081-0.113 0.081-0.066 0-0.12-0.054-0.12-0.12 0-0.014 0.002-0.027 0.007-0.040l-0 0.001c0.141-0.414 0.257-0.713 0.382-1.008l-0.039 0.104c0.018-0.044 0.061-0.074 0.111-0.074 0.017 0 0.032 0.003 0.047 0.009l-0.001-0zM7.581 9.811c0.014-0.006 0.029-0.009 0.046-0.009 0.050 0 0.092 0.030 0.11 0.073l0 0.001c0.085 0.19 0.202 0.489 0.309 0.792l0.034 0.111c0.004 0.011 0.006 0.023 0.006 0.036 0 0.066-0.054 0.12-0.12 0.12-0.051 0-0.095-0.032-0.112-0.077l-0-0.001c-0.139-0.408-0.253-0.702-0.376-0.992l0.038 0.102c-0.006-0.014-0.009-0.029-0.009-0.046 0-0.050 0.030-0.092 0.073-0.11l0.001-0zM-22.317 11.619c0.051 0.015 0.088 0.061 0.088 0.115 0 0.011-0.002 0.022-0.005 0.033l0-0.001c-0.061 0.197-0.139 0.507-0.208 0.821l-0.019 0.103c-0.013 0.053-0.060 0.092-0.116 0.092-0.066 0-0.12-0.054-0.12-0.12 0-0.008 0.001-0.015 0.002-0.023l-0 0.001c0.090-0.424 0.169-0.74 0.258-1.051l-0.027 0.112c0.015-0.051 0.061-0.088 0.115-0.088 0.011 0 0.023 0.002 0.033 0.005l-0.001-0zM8.22 11.619c0.010-0.003 0.021-0.004 0.032-0.004 0.055 0 0.101 0.037 0.115 0.087l0 0.001c0.062 0.199 0.141 0.515 0.211 0.834l0.019 0.105c0.002 0.008 0.003 0.016 0.003 0.025 0 0.066-0.054 0.12-0.12 0.12-0.057 0-0.105-0.040-0.117-0.094l-0-0.001c-0.088-0.418-0.166-0.728-0.254-1.035l0.027 0.11c-0.003-0.010-0.004-0.021-0.004-0.032 0-0.055 0.037-0.101 0.087-0.115l0.001-0zM-22.732 13.492c0.058 0.009 0.102 0.059 0.102 0.118 0 0.006-0 0.012-0.001 0.019l0-0.001c-0.038 0.232-0.079 0.556-0.109 0.883l-0.005 0.062c-0.006 0.061-0.057 0.108-0.119 0.108-0.066 0-0.12-0.054-0.12-0.12 0-0.004 0-0.007 0-0.011l-0 0c0.035-0.395 0.076-0.723 0.127-1.049l-0.012 0.090c0.009-0.058 0.059-0.102 0.118-0.102 0.006 0 0.013 0.001 0.019 0.001l-0.001-0zM8.635 13.492c0.005-0.001 0.012-0.001 0.018-0.001 0.060 0 0.109 0.044 0.118 0.101l0 0.001c0.039 0.236 0.080 0.564 0.111 0.896l0.005 0.063c0 0.003 0 0.007 0 0.010 0 0.066-0.054 0.12-0.12 0.12-0.062 0-0.113-0.047-0.119-0.108l-0-0.001c-0.035-0.389-0.075-0.713-0.125-1.033l0.011 0.089c-0.001-0.005-0.001-0.012-0.001-0.018 0-0.060 0.044-0.109 0.101-0.118l0.001-0zM-22.918 15.399c0.065 0.002 0.116 0.055 0.116 0.12 0 0.001-0 0.002-0 0.004v-0c-0.005 0.142-0.007 0.309-0.007 0.477s0.003 0.335 0.008 0.502l-0.001-0.024c0 0.002 0 0.003 0 0.005 0 0.066-0.054 0.12-0.12 0.12s-0.119-0.052-0.12-0.118v-0c-0.005-0.144-0.007-0.314-0.007-0.484s0.003-0.34 0.008-0.509l-0.001 0.025c0.002-0.065 0.055-0.116 0.12-0.116 0.001 0 0.003 0 0.004 0h-0zM8.821 15.399c0.001-0 0.002-0 0.004-0 0.065 0 0.118 0.052 0.12 0.116v0c0.005 0.144 0.007 0.314 0.007 0.484s-0.003 0.34-0.008 0.509l0.001-0.025c-0.002 0.065-0.055 0.116-0.12 0.116-0.066 0-0.12-0.054-0.12-0.12 0-0.001 0-0.003 0-0.004v0c0.005-0.142 0.007-0.309 0.007-0.477s-0.003-0.335-0.008-0.502l0.001 0.024c-0-0.001-0-0.002-0-0.004 0-0.065 0.052-0.118 0.116-0.12h0zM-22.875 17.319c0.003-0 0.007-0 0.011-0 0.062 0 0.114 0.048 0.119 0.109l0 0c0.035 0.389 0.075 0.713 0.125 1.033l-0.011-0.089c0.001 0.006 0.002 0.013 0.002 0.020 0 0.066-0.054 0.12-0.12 0.12-0.061 0-0.111-0.045-0.119-0.103l-0-0.001c-0.039-0.236-0.080-0.564-0.111-0.896l-0.005-0.063c-0-0.003-0-0.007-0-0.011 0-0.062 0.048-0.114 0.109-0.119l0-0zM8.778 17.319c0.061 0.006 0.109 0.057 0.109 0.119 0 0.004-0 0.007-0.001 0.011l0-0c-0.035 0.395-0.076 0.723-0.127 1.049l0.011-0.090c-0.009 0.058-0.059 0.102-0.118 0.102-0.066 0-0.12-0.054-0.12-0.12 0-0.006 0.001-0.012 0.001-0.019l-0 0.001c0.038-0.232 0.079-0.556 0.109-0.882l0.005-0.062c0.006-0.061 0.057-0.109 0.119-0.109 0.004 0 0.008 0 0.011 0.001l-0-0zM-22.603 19.217c0.008-0.002 0.016-0.003 0.025-0.003 0.057 0 0.105 0.040 0.117 0.094l0 0.001c0.088 0.418 0.166 0.728 0.254 1.035l-0.027-0.11c0.003 0.010 0.004 0.021 0.004 0.032 0 0.066-0.054 0.12-0.12 0.12-0.055 0-0.101-0.037-0.115-0.087l-0-0.001c-0.062-0.199-0.141-0.515-0.211-0.834l-0.019-0.105c-0.002-0.008-0.003-0.016-0.003-0.025 0-0.057 0.040-0.105 0.094-0.117l0.001-0zM8.506 19.217c0.055 0.012 0.095 0.060 0.095 0.117 0 0.009-0.001 0.017-0.003 0.026l0-0.001c-0.089 0.424-0.169 0.74-0.258 1.051l0.027-0.112c-0.015 0.051-0.061 0.088-0.115 0.088-0.066 0-0.12-0.054-0.12-0.12 0-0.011 0.002-0.022 0.005-0.033l-0 0.001c0.061-0.197 0.139-0.507 0.208-0.821l0.019-0.103c0.012-0.055 0.060-0.095 0.117-0.095 0.009 0 0.018 0.001 0.026 0.003l-0.001-0zM-22.103 21.069c0.012-0.004 0.025-0.007 0.039-0.007 0.052 0 0.097 0.033 0.113 0.080l0 0.001c0.139 0.408 0.253 0.702 0.376 0.992l-0.038-0.102c0.005 0.013 0.008 0.028 0.008 0.043 0 0.066-0.054 0.12-0.12 0.12-0.049 0-0.091-0.029-0.109-0.071l-0-0.001c-0.085-0.19-0.201-0.489-0.309-0.792l-0.034-0.111c-0.004-0.012-0.007-0.025-0.007-0.039 0-0.052 0.033-0.097 0.080-0.113l0.001-0zM8.006 21.069c0.047 0.017 0.081 0.061 0.081 0.113 0 0.014-0.002 0.027-0.007 0.040l0-0.001c-0.141 0.414-0.257 0.713-0.382 1.008l0.039-0.104c-0.019 0.044-0.061 0.074-0.111 0.074-0.066 0-0.12-0.054-0.12-0.12 0-0.017 0.003-0.032 0.009-0.047l-0 0.001c0.084-0.188 0.199-0.482 0.304-0.781l0.034-0.109c0.017-0.047 0.061-0.081 0.113-0.081 0.014 0 0.027 0.002 0.040 0.007l-0.001-0zM-21.382 22.846c0.015-0.008 0.033-0.012 0.053-0.012 0.047 0 0.088 0.027 0.107 0.067l0 0.001c0.181 0.372 0.328 0.648 0.484 0.919l-0.041-0.077c0.009 0.016 0.014 0.036 0.014 0.056 0 0.066-0.054 0.12-0.12 0.12-0.043 0-0.081-0.023-0.102-0.058l-0-0.001c-0.117-0.197-0.267-0.478-0.408-0.763l-0.042-0.093c-0.008-0.015-0.012-0.033-0.012-0.052 0-0.047 0.027-0.088 0.067-0.107l0.001-0zM7.285 22.846c0.040 0.020 0.067 0.061 0.067 0.108 0 0.019-0.004 0.037-0.012 0.053l0-0.001c-0.183 0.378-0.333 0.658-0.491 0.933l0.041-0.078c-0.021 0.037-0.060 0.061-0.104 0.061-0.066 0-0.12-0.054-0.12-0.12 0-0.022 0.006-0.042 0.016-0.059l-0 0.001c0.115-0.194 0.263-0.471 0.402-0.751l0.041-0.091c0.020-0.040 0.061-0.067 0.108-0.067 0.019 0 0.037 0.004 0.053 0.012l-0.001-0zM-20.451 24.523c0.018-0.012 0.041-0.019 0.065-0.019 0.042 0 0.079 0.022 0.1 0.054l0 0c0.208 0.321 0.386 0.576 0.572 0.825l-0.030-0.042c0.015 0.020 0.023 0.044 0.023 0.071 0 0.066-0.054 0.12-0.12 0.12-0.039 0-0.074-0.019-0.096-0.048l-0-0c-0.158-0.21-0.339-0.469-0.512-0.734l-0.038-0.061c-0.012-0.018-0.019-0.041-0.019-0.065 0-0.042 0.022-0.079 0.054-0.1l0-0zM6.354 24.523c0.033 0.022 0.055 0.059 0.055 0.101 0 0.024-0.007 0.047-0.020 0.066l0-0c-0.211 0.326-0.392 0.585-0.58 0.838l0.030-0.043c-0.022 0.028-0.056 0.046-0.095 0.046-0.066 0-0.12-0.054-0.12-0.12 0-0.026 0.008-0.050 0.022-0.069l-0 0c0.155-0.207 0.334-0.462 0.505-0.723l0.037-0.060c0.022-0.033 0.059-0.055 0.101-0.055 0.024 0 0.047 0.007 0.066 0.020l-0-0zM-19.325 26.075c0.021-0.017 0.047-0.028 0.077-0.028 0.037 0 0.070 0.017 0.092 0.043l0 0c0.22 0.263 0.426 0.495 0.639 0.72l-0.007-0.008c0.020 0.021 0.032 0.050 0.032 0.082 0 0.066-0.054 0.12-0.12 0.12-0.034 0-0.065-0.014-0.087-0.037l-0-0c-0.209-0.221-0.418-0.457-0.621-0.698l-0.020-0.025c-0.017-0.021-0.028-0.047-0.028-0.077 0-0.037 0.017-0.070 0.043-0.092l0-0zM5.228 26.075c0.026 0.022 0.043 0.055 0.043 0.092 0 0.029-0.011 0.056-0.028 0.077l0-0c-0.223 0.267-0.432 0.502-0.649 0.731l0.007-0.008c-0.022 0.023-0.053 0.038-0.087 0.038-0.066 0-0.12-0.054-0.12-0.12 0-0.032 0.012-0.061 0.033-0.082l-0 0c0.206-0.218 0.412-0.45 0.612-0.688l0.020-0.025c0.022-0.026 0.055-0.043 0.092-0.043 0.029 0 0.056 0.011 0.077 0.028l-0-0zM-18.020 27.481c0.022-0.023 0.053-0.038 0.087-0.038 0.032 0 0.061 0.012 0.082 0.033l-0-0c0.218 0.206 0.45 0.412 0.688 0.612l0.025 0.020c0.026 0.022 0.043 0.055 0.043 0.092 0 0.066-0.054 0.12-0.12 0.12-0.029 0-0.056-0.011-0.077-0.028l0 0c-0.267-0.223-0.502-0.432-0.731-0.649l0.008 0.007c-0.023-0.022-0.038-0.053-0.038-0.087 0-0.032 0.012-0.061 0.033-0.082l-0 0zM3.924 27.481c0.020 0.021 0.033 0.050 0.033 0.082 0 0.034-0.014 0.065-0.038 0.087l-0 0c-0.221 0.209-0.457 0.418-0.698 0.621l-0.025 0.020c-0.021 0.017-0.047 0.028-0.077 0.028-0.066 0-0.12-0.054-0.12-0.12 0-0.037 0.017-0.070 0.043-0.092l0-0c0.263-0.22 0.494-0.426 0.72-0.639l-0.008 0.007c0.021-0.020 0.050-0.033 0.082-0.033 0.034 0 0.065 0.014 0.087 0.038l0 0zM-16.557 28.721c0.022-0.030 0.057-0.049 0.096-0.049 0.027 0 0.051 0.009 0.071 0.024l-0-0c0.207 0.155 0.462 0.334 0.723 0.505l0.060 0.037c0.033 0.022 0.055 0.059 0.055 0.101 0 0.066-0.054 0.12-0.12 0.12-0.024 0-0.047-0.007-0.066-0.020l0 0c-0.326-0.211-0.585-0.392-0.838-0.58l0.043 0.030c-0.030-0.022-0.049-0.057-0.049-0.096 0-0.027 0.009-0.051 0.024-0.071l-0 0zM2.46 28.721c0.015 0.020 0.023 0.044 0.023 0.071 0 0.039-0.019 0.074-0.048 0.096l-0 0c-0.21 0.158-0.469 0.339-0.734 0.512l-0.061 0.038c-0.019 0.013-0.042 0.020-0.067 0.020-0.066 0-0.12-0.054-0.12-0.12 0-0.043 0.022-0.080 0.056-0.101l0-0c0.321-0.208 0.576-0.386 0.825-0.572l-0.042 0.030c0.020-0.015 0.044-0.023 0.071-0.023 0.039 0 0.074 0.019 0.096 0.048l0 0zM-14.955 29.775c0.021-0.037 0.060-0.061 0.104-0.061 0.022 0 0.042 0.006 0.059 0.016l-0.001-0c0.194 0.115 0.47 0.263 0.751 0.402l0.091 0.041c0.039 0.020 0.066 0.060 0.066 0.107 0 0.066-0.054 0.12-0.12 0.12-0.019 0-0.036-0.004-0.052-0.012l0.001 0c-0.378-0.183-0.658-0.333-0.933-0.491l0.078 0.041c-0.037-0.021-0.061-0.060-0.061-0.104 0-0.022 0.006-0.042 0.016-0.060l-0 0.001zM0.858 29.775c0.010 0.017 0.015 0.037 0.015 0.059 0 0.044-0.024 0.083-0.060 0.104l-0.001 0c-0.197 0.117-0.478 0.267-0.763 0.408l-0.093 0.042c-0.015 0.007-0.033 0.011-0.051 0.011-0.066 0-0.12-0.054-0.12-0.12 0-0.046 0.026-0.087 0.065-0.107l0.001-0c0.372-0.181 0.648-0.328 0.919-0.484l-0.077 0.041c0.017-0.010 0.037-0.015 0.059-0.015 0.044 0 0.083 0.024 0.104 0.060l0 0.001zM-13.238 30.629c0.018-0.044 0.061-0.074 0.111-0.074 0.017 0 0.032 0.003 0.047 0.009l-0.001-0c0.188 0.084 0.482 0.199 0.781 0.304l0.109 0.034c0.047 0.017 0.081 0.061 0.081 0.113 0 0.066-0.054 0.12-0.12 0.12-0.014 0-0.027-0.002-0.040-0.007l0.001 0c-0.414-0.141-0.713-0.257-1.008-0.382l0.104 0.039c-0.044-0.018-0.074-0.061-0.074-0.111 0-0.017 0.003-0.032 0.009-0.047l-0 0.001zM-0.859 30.629c0.006 0.014 0.009 0.029 0.009 0.046 0 0.050-0.030 0.092-0.073 0.11l-0.001 0c-0.19 0.085-0.489 0.201-0.792 0.309l-0.111 0.034c-0.012 0.004-0.025 0.007-0.039 0.007-0.066 0-0.12-0.054-0.12-0.12 0-0.052 0.033-0.097 0.080-0.113l0.001-0c0.408-0.139 0.702-0.253 0.992-0.376l-0.102 0.038c0.014-0.006 0.029-0.009 0.046-0.009 0.050 0 0.092 0.030 0.11 0.073l0 0.001zM-11.43 31.269c0.015-0.051 0.061-0.088 0.115-0.088 0.011 0 0.022 0.002 0.033 0.005l-0.001-0c0.197 0.061 0.507 0.139 0.821 0.208l0.103 0.019c0.053 0.013 0.092 0.060 0.092 0.116 0 0.066-0.054 0.12-0.12 0.12-0.008 0-0.015-0.001-0.023-0.002l0.001 0c-0.424-0.090-0.74-0.169-1.051-0.258l0.112 0.027c-0.051-0.015-0.088-0.061-0.088-0.115 0-0.011 0.002-0.023 0.005-0.033l-0 0.001zM-2.667 31.269c0.003 0.010 0.004 0.021 0.004 0.032 0 0.055-0.037 0.101-0.087 0.115l-0.001 0c-0.199 0.062-0.515 0.141-0.834 0.211l-0.105 0.019c-0.008 0.002-0.016 0.003-0.025 0.003-0.066 0-0.12-0.054-0.12-0.12 0-0.057 0.040-0.105 0.094-0.117l0.001-0c0.418-0.088 0.728-0.166 1.035-0.254l-0.11 0.027c0.010-0.003 0.021-0.004 0.032-0.004 0.055 0 0.101 0.037 0.115 0.087l0 0.001zM-9.557 31.684c0.009-0.058 0.059-0.102 0.118-0.102 0.006 0 0.012 0 0.019 0.001l-0.001-0c0.232 0.038 0.556 0.079 0.882 0.109l0.062 0.005c0.061 0.006 0.108 0.057 0.108 0.119 0 0.066-0.054 0.12-0.12 0.12-0.004 0-0.007-0-0.011-0l0 0c-0.395-0.035-0.723-0.076-1.049-0.127l0.090 0.012c-0.058-0.009-0.102-0.059-0.102-0.118 0-0.006 0.001-0.013 0.001-0.019l-0 0.001zM-4.54 31.684c0.001 0.005 0.001 0.012 0.001 0.018 0 0.060-0.044 0.109-0.101 0.118l-0.001 0c-0.236 0.039-0.564 0.080-0.896 0.111l-0.063 0.005c-0.003 0-0.007 0-0.010 0-0.066 0-0.12-0.054-0.12-0.12 0-0.062 0.047-0.113 0.108-0.119l0-0c0.389-0.035 0.713-0.075 1.033-0.125l-0.089 0.011c0.005-0.001 0.012-0.001 0.018-0.001 0.060 0 0.109 0.044 0.118 0.101l0 0.001zM-7.649 31.87c0.002-0.065 0.055-0.116 0.12-0.116 0.001 0 0.002 0 0.004 0h-0c0.142 0.005 0.309 0.007 0.477 0.007s0.335-0.003 0.502-0.008l-0.024 0.001c0 0 0.001 0 0.001 0 0.066 0 0.12 0.054 0.12 0.12 0 0.064-0.050 0.116-0.113 0.12h-0c-0.144 0.005-0.314 0.007-0.484 0.007s-0.34-0.003-0.509-0.008l0.025 0.001c-0.065-0.002-0.116-0.055-0.116-0.12 0-0.001 0-0.003 0-0.004v0z"></path>
    </symbol>
    <symbol id="icon-arrow" viewBox="0 0 130 32">
      <path fill="#fff" style="fill: var(--color2, #fff)" d="M129.508 17.508c0.386-0.386 0.625-0.919 0.625-1.508s-0.239-1.122-0.625-1.508l-13.577-13.577c-0.388-0.402-0.932-0.651-1.534-0.651-1.178 0-2.133 0.955-2.133 2.133 0 0.602 0.249 1.146 0.651 1.534l0.001 0.001 12.068 12.068-12.068 12.068c-0.371 0.383-0.599 0.906-0.599 1.482 0 1.178 0.955 2.133 2.133 2.133 0.576 0 1.099-0.228 1.483-0.599l-0.001 0.001 13.577-13.577zM0 18.133h128v-4.267h-128v4.267z"></path>
    </symbol>
    <symbol id="icon-Arrow-snake" viewBox="0 0 53 32">
      <path fill="#f9a830" style="fill: var(--color1, #f9a830)" d="M52.136 0.032c-0.167 0.247-0.333 0.486-0.498 0.717-0.154 0.216-0.104 0.517 0.113 0.671s0.517 0.104 0.671-0.113c0.169-0.238 0.34-0.483 0.511-0.737l-0.797-0.539zM51.29 2.032c-0.207-0.166-0.51-0.133-0.676 0.074-0.374 0.465-0.741 0.89-1.102 1.277-0.181 0.194-0.171 0.499 0.023 0.68s0.499 0.171 0.68-0.024c0.379-0.406 0.762-0.849 1.149-1.331 0.166-0.207 0.133-0.51-0.074-0.676zM48.986 4.602c-0.175-0.2-0.48-0.219-0.679-0.044-0.448 0.394-0.887 0.731-1.317 1.019-0.221 0.148-0.28 0.447-0.133 0.668s0.447 0.28 0.667 0.133c0.468-0.313 0.941-0.677 1.418-1.096 0.2-0.175 0.219-0.48 0.044-0.679zM46.185 6.622c-0.108-0.243-0.392-0.352-0.635-0.244-0.524 0.233-1.038 0.4-1.547 0.512-0.259 0.058-0.423 0.315-0.365 0.574s0.315 0.423 0.574 0.365c0.571-0.127 1.147-0.314 1.729-0.573 0.243-0.108 0.352-0.392 0.244-0.635zM42.875 7.553c-0.006-0.266-0.226-0.476-0.492-0.47-0.549 0.012-1.098-0.025-1.652-0.098-0.263-0.035-0.505 0.151-0.54 0.414s0.151 0.505 0.414 0.54c0.593 0.078 1.192 0.119 1.799 0.106 0.266-0.006 0.476-0.226 0.47-0.492zM39.435 7.255c0.059-0.259-0.102-0.517-0.361-0.577-0.547-0.126-1.098-0.271-1.66-0.422-0.257-0.069-0.521 0.082-0.59 0.339s0.083 0.521 0.339 0.59c0.564 0.152 1.129 0.301 1.695 0.431 0.259 0.059 0.517-0.102 0.577-0.361zM36.083 6.392c0.066-0.257-0.089-0.52-0.346-0.586-0.56-0.144-1.131-0.28-1.714-0.394-0.261-0.051-0.514 0.119-0.565 0.38s0.119 0.514 0.38 0.565c0.558 0.109 1.109 0.241 1.659 0.382 0.257 0.066 0.52-0.089 0.586-0.346zM32.698 5.676c0.025-0.265-0.169-0.499-0.434-0.524-0.584-0.055-1.181-0.077-1.793-0.053-0.266 0.010-0.472 0.234-0.462 0.5s0.234 0.472 0.5 0.462c0.564-0.022 1.118-0.002 1.665 0.049 0.265 0.025 0.499-0.169 0.524-0.434zM29.244 5.686c-0.050-0.261-0.302-0.432-0.563-0.382-0.567 0.109-1.144 0.262-1.733 0.469-0.251 0.088-0.383 0.363-0.295 0.613s0.362 0.383 0.613 0.295c0.544-0.191 1.076-0.332 1.596-0.432 0.261-0.050 0.432-0.302 0.382-0.563zM25.947 6.69c-0.12-0.237-0.41-0.332-0.647-0.212-0.262 0.133-0.525 0.276-0.792 0.431-0.261 0.152-0.512 0.308-0.753 0.467-0.222 0.146-0.283 0.445-0.137 0.667s0.445 0.283 0.667 0.136c0.227-0.15 0.462-0.296 0.708-0.439 0.25-0.146 0.498-0.28 0.742-0.404 0.237-0.12 0.332-0.41 0.212-0.647zM23.021 8.491c-0.172-0.203-0.476-0.227-0.678-0.056-0.463 0.393-0.885 0.802-1.271 1.223-0.18 0.196-0.166 0.5 0.029 0.68s0.5 0.166 0.68-0.029c0.361-0.393 0.753-0.774 1.185-1.14 0.203-0.172 0.227-0.476 0.056-0.678zM20.631 10.918c-0.215-0.156-0.516-0.107-0.672 0.109-0.348 0.482-0.663 0.974-0.954 1.473-0.134 0.229-0.057 0.524 0.173 0.658s0.524 0.057 0.658-0.173c0.278-0.476 0.576-0.942 0.903-1.395 0.156-0.216 0.107-0.516-0.109-0.672zM16.737 17.145c-0.236 0.514-0.476 1.023-0.729 1.525-0.12 0.237-0.024 0.527 0.213 0.646s0.527 0.024 0.646-0.213c0.261-0.517 0.506-1.038 0.744-1.557 0.111-0.241 0.005-0.527-0.236-0.638s-0.527-0.005-0.638 0.236zM17.681 16.228c0.242 0.111 0.527 0.004 0.638-0.237 0.236-0.516 0.474-1.026 0.725-1.529 0.119-0.238 0.022-0.527-0.216-0.645s-0.527-0.022-0.645 0.216c-0.258 0.517-0.501 1.038-0.739 1.558-0.111 0.242-0.004 0.527 0.237 0.638zM15.867 19.973c-0.229-0.136-0.524-0.060-0.659 0.169-0.28 0.473-0.581 0.937-0.912 1.389-0.157 0.215-0.11 0.516 0.105 0.672s0.516 0.11 0.672-0.105c0.351-0.48 0.668-0.97 0.962-1.466 0.135-0.229 0.060-0.524-0.169-0.659zM13.927 22.781c-0.195-0.18-0.5-0.168-0.68 0.027-0.362 0.392-0.756 0.773-1.188 1.14-0.202 0.172-0.227 0.476-0.055 0.678s0.476 0.227 0.678 0.055c0.462-0.393 0.884-0.801 1.271-1.221 0.18-0.195 0.168-0.5-0.027-0.68zM11.41 25.075c-0.148-0.221-0.447-0.28-0.668-0.133-0.44 0.294-0.914 0.578-1.427 0.848-0.235 0.124-0.325 0.415-0.201 0.65s0.415 0.325 0.65 0.201c0.541-0.286 1.043-0.586 1.512-0.899 0.221-0.148 0.28-0.447 0.133-0.668zM8.44 26.757c-0.103-0.245-0.385-0.36-0.63-0.257-0.49 0.205-1.009 0.401-1.56 0.586-0.252 0.084-0.388 0.357-0.303 0.609s0.357 0.388 0.609 0.303c0.573-0.192 1.114-0.396 1.627-0.611 0.245-0.103 0.36-0.385 0.257-0.63zM0.184 28.598c-0.158 0.213-0.114 0.515 0.1 0.673l3.478 2.581c0.213 0.158 0.515 0.114 0.673-0.1s0.114-0.515-0.1-0.673l-2.618-1.943c0.141-0.104 0.22-0.282 0.189-0.467-0.029-0.174-0.149-0.31-0.302-0.37l1.934-2.606c0.158-0.213 0.114-0.515-0.1-0.673s-0.515-0.114-0.673 0.1l-2.581 3.478zM5.234 27.908c-0.069-0.257-0.333-0.409-0.589-0.34-0.52 0.139-1.065 0.27-1.636 0.392-0.26 0.055-0.426 0.311-0.37 0.571s0.311 0.426 0.571 0.37c0.587-0.125 1.148-0.26 1.684-0.404 0.257-0.069 0.409-0.333 0.34-0.589z"></path>
    </symbol>
  </defs>
</svg>
